<svg width="27" height="27" viewBox="0 0 27 27" fill="none" xmlns="http://www.w3.org/2000/svg">
<path d="M0 24H27V27H0V24ZM4.5 19.5C6.15 19.5 7.5 18.15 7.5 16.5C7.5 15.75 7.2 15 6.75 14.55L8.7 10.5H9C9.75 10.5 10.5 10.2 10.95 9.75L15 11.85V12C15 13.65 16.35 15 18 15C19.65 15 21 13.65 21 12C21 11.25 20.7 10.65 20.25 10.05L22.2 6H22.5C24.15 6 25.5 4.65 25.5 3C25.5 1.35 24.15 0 22.5 0C20.85 0 19.5 1.35 19.5 3C19.5 3.75 19.8 4.5 20.25 4.95L18.3 9H18C17.25 9 16.5 9.3 16.05 9.75L12 7.8V7.5C12 5.85 10.65 4.5 9 4.5C7.35 4.5 6 5.85 6 7.5C6 8.25 6.3 9 6.75 9.45L4.8 13.5H4.5C2.85 13.5 1.5 14.85 1.5 16.5C1.5 18.15 2.85 19.5 4.5 19.5Z" fill="black"/>
</svg>
