<svg width="529" height="400" viewBox="0 0 529 400" fill="none" xmlns="http://www.w3.org/2000/svg">
<g clip-path="url(#clip0_90_685)">
<g filter="url(#filter0_d_90_685)">
<rect x="299" y="228" width="230" height="172" rx="16" fill="#202020"/>
<rect x="299.5" y="228.5" width="229" height="171" rx="15.5" stroke="#484A4C"/>
</g>
<mask id="mask0_90_685" style="mask-type:alpha" maskUnits="userSpaceOnUse" x="299" y="228" width="230" height="172">
<rect x="299.5" y="228.5" width="229" height="171" rx="15.5" fill="white" stroke="white"/>
</mask>
<g mask="url(#mask0_90_685)">
<path d="M299 356.535C299 356.535 311.556 357.078 323.977 360.462C339.691 364.742 346.316 358.334 356.876 350.915C364.835 345.323 371.938 348.034 377.553 356.535C381.695 362.804 387.73 373.327 393.981 371.633C399.694 370.085 403.745 357.742 411.665 354.603C417.941 352.115 423.042 358.95 430.27 356.535C440.075 353.258 441.536 340.707 448.544 340.707C457.193 340.707 462.609 363.103 470.478 363.103C478.299 363.103 482.323 340.964 490.88 347.684C497.421 352.823 501.771 338.54 507.956 333.654C514.142 328.767 529 330.443 529 330.443" stroke="white" stroke-width="2.52" stroke-linecap="round" stroke-linejoin="round"/>
<path d="M331.65 285.777V267.558H331.557L325.807 271.465V267.277L331.635 263.23H336.322V285.777H331.65ZM350.291 286.168C344.572 286.168 341.104 281.683 341.104 274.511V274.48C341.104 267.308 344.572 262.84 350.291 262.84C356.01 262.84 359.479 267.308 359.479 274.48V274.511C359.479 281.683 356.01 286.168 350.291 286.168ZM350.291 282.386C353.104 282.386 354.713 279.465 354.713 274.511V274.48C354.713 269.527 353.104 266.621 350.291 266.621C347.479 266.621 345.869 269.527 345.869 274.48V274.511C345.869 279.465 347.479 282.386 350.291 282.386ZM360.619 290.48L361.76 281.84H366.072L363.775 290.48H360.619ZM369.322 285.777V282.543L377.291 275.09C380.197 272.371 380.807 271.261 380.807 269.699V269.668C380.791 267.824 379.385 266.511 377.385 266.511C375.072 266.511 373.51 268.027 373.447 270.058L373.432 270.199H369.057V270.074C369.057 265.824 372.588 262.84 377.354 262.84C382.119 262.84 385.4 265.558 385.4 269.402V269.433C385.4 272.168 384.104 273.949 380.213 277.527L375.494 281.84V282.027H385.713V285.777H369.322ZM397.291 286.168C392.385 286.168 389.135 283.308 388.854 279.543L388.838 279.308H393.197L393.229 279.418C393.557 281.121 395.135 282.433 397.307 282.433C399.775 282.433 401.51 280.746 401.51 278.34V278.308C401.494 275.933 399.76 274.261 397.322 274.261C396.166 274.261 395.182 274.605 394.416 275.215C393.963 275.558 393.604 275.996 393.338 276.465H389.229L390.26 263.23H404.65V266.98H394.01L393.463 273.324H393.557C394.494 271.808 396.354 270.886 398.635 270.886C402.916 270.886 406.01 273.965 406.01 278.215V278.246C406.01 282.965 402.447 286.168 397.291 286.168ZM419.385 285.777V281.636H408.166V277.699L417.213 263.23H423.869V277.871H426.838V281.636H423.869V285.777H419.385ZM412.275 277.996H419.479V266.636H419.369L412.275 277.871V277.996Z" fill="white"/>
<path d="M333.322 315.66H331.789L327.207 303.231H328.834L332.53 313.773H332.581L336.276 303.231H337.904L333.322 315.66ZM339.038 315.66V306.702H340.537V315.66H339.038ZM339.787 305.195C339.279 305.195 338.857 304.772 338.857 304.264C338.857 303.748 339.279 303.334 339.787 303.334C340.304 303.334 340.726 303.748 340.726 304.264C340.726 304.772 340.304 305.195 339.787 305.195ZM342.532 309.174C342.532 307.641 343.901 306.547 345.874 306.547C347.726 306.547 349.086 307.649 349.155 309.165H347.726C347.622 308.304 346.925 307.77 345.822 307.77C344.728 307.77 344.005 308.313 344.005 309.096C344.005 309.717 344.478 310.13 345.495 310.388L346.881 310.724C348.69 311.181 349.345 311.835 349.345 313.153C349.345 314.712 347.872 315.815 345.779 315.815C343.815 315.815 342.446 314.747 342.291 313.162H343.789C343.953 314.092 344.659 314.592 345.874 314.592C347.088 314.592 347.838 314.075 347.838 313.265C347.838 312.628 347.467 312.283 346.459 312.016L344.883 311.611C343.307 311.207 342.532 310.397 342.532 309.174ZM351.107 315.66V306.702H352.606V315.66H351.107ZM351.857 305.195C351.349 305.195 350.927 304.772 350.927 304.264C350.927 303.748 351.349 303.334 351.857 303.334C352.374 303.334 352.796 303.748 352.796 304.264C352.796 304.772 352.374 305.195 351.857 305.195ZM355.239 304.54H356.737V306.702H358.477V307.934H356.737V313.257C356.737 314.075 357.082 314.445 357.848 314.445C358.021 314.445 358.365 314.419 358.469 314.402V315.66C358.288 315.703 357.874 315.729 357.521 315.729C355.876 315.729 355.239 315.057 355.239 313.334V307.934H353.904V306.702H355.239V304.54ZM363.659 315.815C361.179 315.815 359.508 314.032 359.508 311.181C359.508 308.321 361.179 306.547 363.659 306.547C366.131 306.547 367.802 308.321 367.802 311.181C367.802 314.032 366.131 315.815 363.659 315.815ZM363.659 314.497C365.244 314.497 366.278 313.291 366.278 311.181C366.278 309.071 365.244 307.865 363.659 307.865C362.074 307.865 361.032 309.071 361.032 311.181C361.032 313.291 362.074 314.497 363.659 314.497ZM369.444 315.66V306.702H370.857V308.166H370.891C371.184 307.176 372.011 306.547 373.062 306.547C373.32 306.547 373.544 306.59 373.665 306.607V308.063C373.544 308.02 373.225 307.977 372.864 307.977C371.701 307.977 370.943 308.812 370.943 310.078V315.66H369.444ZM374.859 309.174C374.859 307.641 376.228 306.547 378.201 306.547C380.052 306.547 381.413 307.649 381.482 309.165H380.052C379.949 308.304 379.251 307.77 378.149 307.77C377.055 307.77 376.332 308.313 376.332 309.096C376.332 309.717 376.805 310.13 377.822 310.388L379.208 310.724C381.017 311.181 381.672 311.835 381.672 313.153C381.672 314.712 380.199 315.815 378.106 315.815C376.142 315.815 374.773 314.747 374.617 313.162H376.116C376.28 314.092 376.986 314.592 378.201 314.592C379.415 314.592 380.164 314.075 380.164 313.265C380.164 312.628 379.794 312.283 378.786 312.016L377.21 311.611C375.634 311.207 374.859 310.397 374.859 309.174ZM387.583 304.54H389.081V306.702H390.821V307.934H389.081V313.257C389.081 314.075 389.426 314.445 390.193 314.445C390.365 314.445 390.709 314.419 390.813 314.402V315.66C390.632 315.703 390.218 315.729 389.865 315.729C388.22 315.729 387.583 315.057 387.583 313.334V307.934H386.248V306.702H387.583V304.54ZM392.627 315.66V303.231H394.126V308.132H394.16C394.66 307.133 395.642 306.547 397.002 306.547C398.966 306.547 400.155 307.873 400.155 309.872V315.66H398.656V310.147C398.656 308.726 397.941 307.873 396.537 307.873C395.047 307.873 394.126 308.89 394.126 310.44V315.66H392.627ZM402.262 315.66V306.702H403.761V315.66H402.262ZM403.011 305.195C402.503 305.195 402.081 304.772 402.081 304.264C402.081 303.748 402.503 303.334 403.011 303.334C403.528 303.334 403.95 303.748 403.95 304.264C403.95 304.772 403.528 305.195 403.011 305.195ZM405.756 309.174C405.756 307.641 407.125 306.547 409.098 306.547C410.95 306.547 412.31 307.649 412.379 309.165H410.95C410.846 308.304 410.148 307.77 409.046 307.77C407.952 307.77 407.229 308.313 407.229 309.096C407.229 309.717 407.702 310.13 408.719 310.388L410.105 310.724C411.914 311.181 412.569 311.835 412.569 313.153C412.569 314.712 411.096 315.815 409.003 315.815C407.039 315.815 405.67 314.747 405.515 313.162H407.013C407.177 314.092 407.883 314.592 409.098 314.592C410.312 314.592 411.062 314.075 411.062 313.265C411.062 312.628 410.691 312.283 409.683 312.016L408.107 311.611C406.531 311.207 405.756 310.397 405.756 309.174ZM418.738 319.01C418.557 319.01 418.256 318.993 418.092 318.959V317.701C418.256 317.735 418.488 317.744 418.678 317.744C419.513 317.744 419.978 317.339 420.323 316.297L420.53 315.668L417.222 306.702H418.824L421.305 314.161H421.331L423.811 306.702H425.388L421.865 316.288C421.098 318.381 420.357 319.01 418.738 319.01ZM430.036 307.847C428.632 307.847 427.65 308.924 427.555 310.414H432.421C432.387 308.915 431.448 307.847 430.036 307.847ZM432.387 313.093H433.86C433.601 314.661 432.086 315.815 430.13 315.815C427.564 315.815 426.005 314.032 426.005 311.215C426.005 308.433 427.589 306.547 430.061 306.547C432.482 306.547 433.972 308.304 433.972 311.017V311.586H427.546V311.672C427.546 313.386 428.554 314.514 430.165 314.514C431.302 314.514 432.137 313.937 432.387 313.093ZM438.568 314.54C439.981 314.54 441.066 313.549 441.066 312.257V311.525L438.672 311.672C437.466 311.749 436.777 312.283 436.777 313.127C436.777 313.98 437.491 314.54 438.568 314.54ZM438.232 315.815C436.449 315.815 435.252 314.738 435.252 313.127C435.252 311.594 436.432 310.63 438.499 310.509L441.066 310.363V309.613C441.066 308.519 440.342 307.865 439.102 307.865C437.948 307.865 437.224 308.407 437.035 309.286H435.588C435.691 307.735 437.018 306.547 439.137 306.547C441.238 306.547 442.565 307.684 442.565 309.467V315.66H441.144V314.118H441.109C440.575 315.143 439.438 315.815 438.232 315.815ZM444.594 315.66V306.702H446.007V308.166H446.041C446.334 307.176 447.161 306.547 448.212 306.547C448.47 306.547 448.694 306.59 448.815 306.607V308.063C448.694 308.02 448.375 307.977 448.014 307.977C446.851 307.977 446.093 308.812 446.093 310.078V315.66H444.594Z" fill="#82808A"/>
</g>
</g>
<g filter="url(#filter1_d_90_685)">
<rect x="441.802" y="332.708" width="15.1648" height="15.1385" rx="7.56923" fill="white"/>
<rect x="443.062" y="333.968" width="12.6448" height="12.6185" rx="6.30923" stroke="#202020" stroke-width="2.52"/>
</g>
<g filter="url(#filter2_d_90_685)">
<rect x="7" y="4" width="284" height="156" rx="16" fill="#202020"/>
<rect x="7.5" y="4.5" width="283" height="155" rx="15.5" stroke="#484A4C"/>
</g>
<mask id="mask1_90_685" style="mask-type:alpha" maskUnits="userSpaceOnUse" x="7" y="4" width="284" height="156">
<rect x="7" y="4" width="284" height="156" rx="16" fill="white"/>
</mask>
<g mask="url(#mask1_90_685)">
</g>
<circle cx="79" cy="82" r="38" stroke="#202020" stroke-width="5.04"/>
<path fill-rule="evenodd" clip-rule="evenodd" d="M87.4373 74.0383C89.2298 76.204 90.306 78.9771 90.306 82C90.306 88.9269 84.6548 94.5423 77.6837 94.5423C70.7127 94.5423 65.0615 88.9269 65.0615 82C65.0615 75.073 70.7127 69.4576 77.6837 69.4576C80.7035 69.4576 83.4756 70.5113 85.6479 72.2689L86.3432 71.5781L86.6736 69.8292C86.8022 69.1484 87.4619 68.7001 88.147 68.8279C88.8322 68.9557 89.2833 69.6112 89.1547 70.292L89.0827 70.6732L89.4663 70.6017C90.1514 70.4739 90.8111 70.9221 90.9397 71.603C91.0684 72.2838 90.6172 72.9393 89.9321 73.0671L88.0641 73.4156L87.4373 74.0383ZM83.8511 74.0544C82.1452 72.745 80.006 71.9661 77.6837 71.9661C72.1069 71.9661 67.586 76.4584 67.586 82C67.586 87.5415 72.1069 92.0339 77.6837 92.0339C83.2606 92.0339 87.7815 87.5415 87.7815 82C87.7815 79.6701 86.9824 77.5257 85.6416 75.8227L83.8387 77.6142C84.7314 78.849 85.2571 80.3635 85.2571 82C85.2571 86.1562 81.8664 89.5254 77.6837 89.5254C73.5011 89.5254 70.1104 86.1562 70.1104 82C70.1104 77.8438 73.5011 74.4746 77.6837 74.4746C79.3081 74.4746 80.813 74.9827 82.0463 75.8478L83.8511 74.0544ZM80.2209 77.6616C79.4754 77.2301 78.6086 76.983 77.6837 76.983C74.8953 76.983 72.6349 79.2292 72.6349 82C72.6349 84.7708 74.8953 87.0169 77.6837 87.0169C80.4722 87.0169 82.7326 84.7708 82.7326 82C82.7326 81.0582 82.4715 80.1771 82.0173 79.4241L80.1132 81.3161C80.1751 81.5335 80.2082 81.7629 80.2082 82C80.2082 83.3854 79.078 84.5085 77.6837 84.5085C76.2895 84.5085 75.1593 83.3854 75.1593 82C75.1593 80.6146 76.2895 79.4915 77.6837 79.4915C77.8974 79.4915 78.1048 79.5179 78.3029 79.5675L80.2209 77.6616Z" fill="white"/>
<path d="M41 82C41 102.987 58.0132 120 79 120V120C99.9868 120 117 102.987 117 82C117 61.0132 99.9868 44 79 44" stroke="#484A4C" stroke-width="4" stroke-linecap="round" stroke-linejoin="round"/>
<path d="M143.241 70.2505L152.944 51.5474V51.4536H141.476V47.7036H157.601V51.5005L148.194 70.2505H143.241ZM169.226 70.7661C165.991 70.7661 163.319 69.2974 161.741 66.6099C160.491 64.7036 159.851 62.1567 159.851 59.1567C159.851 51.688 163.476 47.188 169.304 47.188C173.601 47.188 176.96 49.7349 177.585 53.4224H172.944C172.491 51.9224 171.038 50.9224 169.272 50.9224C166.132 50.9224 164.226 53.938 164.335 59.0317H164.429C165.335 56.8286 167.554 55.3599 170.429 55.3599C174.71 55.3599 177.882 58.5161 177.882 62.7974C177.882 67.438 174.272 70.7661 169.226 70.7661ZM169.179 67.0005C171.476 67.0005 173.288 65.2036 173.288 62.938C173.288 60.6099 171.554 58.9067 169.194 58.9067C166.851 58.9067 165.069 60.6099 165.069 62.8911C165.069 65.188 166.866 67.0005 169.179 67.0005ZM190.116 53.1099C190.116 56.7036 188.132 58.9536 184.976 58.9536C181.835 58.9536 179.835 56.7036 179.835 53.1099C179.835 49.5317 181.835 47.2661 184.976 47.2661C188.132 47.2661 190.116 49.5317 190.116 53.1099ZM184.976 56.188C185.991 56.188 186.616 55.0317 186.616 53.0942C186.616 51.1567 185.991 49.9849 184.976 49.9849C183.96 49.9849 183.335 51.1567 183.335 53.0942C183.335 55.0317 183.96 56.188 184.976 56.188ZM185.851 70.2505H182.069L190.819 58.2661L198.522 47.7036H202.288L193.788 59.3599L185.851 70.2505ZM204.522 64.7192C204.522 68.313 202.538 70.5786 199.382 70.5786C196.241 70.5786 194.241 68.313 194.241 64.7192C194.241 61.1411 196.241 58.8755 199.382 58.8755C202.538 58.8755 204.522 61.1411 204.522 64.7192ZM199.382 67.7974C200.397 67.7974 201.022 66.6411 201.022 64.7036C201.022 62.7661 200.397 61.5942 199.382 61.5942C198.366 61.5942 197.741 62.7661 197.741 64.7036C197.741 66.6411 198.366 67.7974 199.382 67.7974Z" fill="white"/>
<path d="M149.664 108.605V110H142.119V97.5715H143.669V108.605H149.664ZM154.717 110.156C152.236 110.156 150.565 108.373 150.565 105.522C150.565 102.662 152.236 100.888 154.717 100.888C157.189 100.888 158.86 102.662 158.86 105.522C158.86 108.373 157.189 110.156 154.717 110.156ZM154.717 108.838C156.302 108.838 157.335 107.632 157.335 105.522C157.335 103.411 156.302 102.205 154.717 102.205C153.132 102.205 152.09 103.411 152.09 105.522C152.09 107.632 153.132 108.838 154.717 108.838ZM160.502 110V101.043H161.914V102.507H161.949C162.242 101.516 163.069 100.888 164.119 100.888C164.378 100.888 164.602 100.931 164.722 100.948V102.404C164.602 102.361 164.283 102.317 163.921 102.317C162.759 102.317 162.001 103.153 162.001 104.419V110H160.502ZM169.233 102.188C167.829 102.188 166.847 103.265 166.752 104.755H171.618C171.584 103.256 170.645 102.188 169.233 102.188ZM171.584 107.434H173.057C172.798 109.001 171.283 110.156 169.327 110.156C166.761 110.156 165.202 108.373 165.202 105.556C165.202 102.774 166.786 100.888 169.258 100.888C171.679 100.888 173.169 102.645 173.169 105.358V105.926H166.743V106.013C166.743 107.727 167.751 108.855 169.362 108.855C170.499 108.855 171.334 108.278 171.584 107.434ZM174.811 110V101.043H176.223V102.472H176.258C176.68 101.525 177.593 100.888 178.799 100.888C180.022 100.888 180.926 101.508 181.314 102.593H181.348C181.848 101.525 182.899 100.888 184.156 100.888C185.931 100.888 187.076 102.042 187.076 103.816V110H185.577V104.161C185.577 102.938 184.897 102.214 183.717 102.214C182.528 102.214 181.693 103.093 181.693 104.307V110H180.194V103.997C180.194 102.92 179.471 102.214 178.359 102.214C177.171 102.214 176.309 103.144 176.309 104.385V110H174.811ZM194.641 110H193.09V97.5715H194.641V110ZM201.296 100.888C203.578 100.888 205.129 102.714 205.129 105.522C205.129 108.33 203.587 110.156 201.33 110.156C200.047 110.156 199.013 109.527 198.479 108.545H198.445V112.989H196.946V101.043H198.367V102.559H198.402C198.953 101.551 199.995 100.888 201.296 100.888ZM201.003 108.838C202.596 108.838 203.595 107.554 203.595 105.522C203.595 103.497 202.596 102.205 201.003 102.205C199.47 102.205 198.436 103.532 198.436 105.522C198.436 107.52 199.47 108.838 201.003 108.838ZM206.615 103.515C206.615 101.982 207.985 100.888 209.957 100.888C211.809 100.888 213.17 101.99 213.239 103.506H211.809C211.706 102.645 211.008 102.111 209.906 102.111C208.812 102.111 208.088 102.653 208.088 103.437C208.088 104.057 208.562 104.471 209.578 104.729L210.965 105.065C212.774 105.522 213.429 106.176 213.429 107.494C213.429 109.053 211.956 110.156 209.863 110.156C207.899 110.156 206.529 109.087 206.374 107.503H207.873C208.037 108.433 208.743 108.932 209.957 108.932C211.172 108.932 211.921 108.416 211.921 107.606C211.921 106.969 211.551 106.624 210.543 106.357L208.967 105.952C207.391 105.547 206.615 104.738 206.615 103.515ZM222.469 101.043V110H221.048V108.545H221.014C220.48 109.578 219.549 110.156 218.171 110.156C216.216 110.156 215.07 108.889 215.07 106.857V101.043H216.569V106.59C216.569 108.045 217.25 108.829 218.636 108.829C220.092 108.829 220.971 107.83 220.971 106.305V101.043H222.469ZM224.542 110V101.043H225.954V102.472H225.989C226.411 101.525 227.324 100.888 228.53 100.888C229.753 100.888 230.657 101.508 231.045 102.593H231.079C231.579 101.525 232.63 100.888 233.887 100.888C235.662 100.888 236.807 102.042 236.807 103.816V110H235.308V104.161C235.308 102.938 234.628 102.214 233.448 102.214C232.259 102.214 231.424 103.093 231.424 104.307V110H229.925V103.997C229.925 102.92 229.202 102.214 228.091 102.214C226.902 102.214 226.041 103.144 226.041 104.385V110H224.542Z" fill="#787878"/>
<g clip-path="url(#clip1_90_685)">
<g filter="url(#filter3_d_90_685)">
<rect x="7" y="168" width="284" height="232" rx="16" fill="#202020"/>
<rect x="7.5" y="168.5" width="283" height="231" rx="15.5" stroke="#484A4C"/>
</g>
<rect x="64.6084" y="242.644" width="190.007" height="1.0087" fill="#202020"/>
<rect x="64.6084" y="287.026" width="190.007" height="1.0087" fill="#202020"/>
<rect x="64.6084" y="334.435" width="190.007" height="1.0087" fill="#202020"/>
<path d="M56.8441 366.256H58.0775C58.1051 367.096 58.7459 367.682 59.6486 367.682C60.7442 367.682 61.3368 367.027 61.3368 365.815V358.648H62.5771V365.822C62.5771 367.71 61.4884 368.826 59.6555 368.826C58.0017 368.826 56.8441 367.765 56.8441 366.256ZM66.7847 367.696C67.9148 367.696 68.783 366.903 68.783 365.87V365.284L66.8674 365.401C65.9027 365.463 65.3515 365.89 65.3515 366.566C65.3515 367.248 65.9234 367.696 66.7847 367.696ZM66.516 368.716C65.0896 368.716 64.1318 367.854 64.1318 366.566C64.1318 365.339 65.0758 364.567 66.7296 364.471L68.783 364.354V363.754C68.783 362.879 68.2042 362.356 67.2119 362.356C66.2886 362.356 65.7098 362.79 65.5582 363.492H64.4006C64.4832 362.252 65.5444 361.301 67.2395 361.301C68.9208 361.301 69.982 362.211 69.982 363.637V368.592H68.845V367.358H68.8174C68.3902 368.178 67.4807 368.716 66.516 368.716ZM71.6056 368.592V361.425H72.7356V362.569H72.7632C73.1629 361.797 73.9277 361.301 75.0371 361.301C76.6082 361.301 77.5177 362.314 77.5177 363.94V368.592H76.3188V364.154C76.3188 362.996 75.7744 362.362 74.6719 362.362C73.5419 362.362 72.8046 363.162 72.8046 364.374V368.592H71.6056Z" fill="#82808A"/>
<path d="M95.1445 368.592H93.9041V358.648H99.9403V359.765H95.1445V363.182H99.5476V364.285H95.1445V368.592ZM103.872 362.342C102.749 362.342 101.964 363.203 101.888 364.395H105.781C105.753 363.196 105.002 362.342 103.872 362.342ZM105.753 366.538H106.932C106.725 367.792 105.512 368.716 103.948 368.716C101.895 368.716 100.648 367.289 100.648 365.036C100.648 362.81 101.915 361.301 103.893 361.301C105.829 361.301 107.021 362.707 107.021 364.878V365.332H101.881V365.401C101.881 366.772 102.687 367.675 103.976 367.675C104.885 367.675 105.554 367.213 105.753 366.538ZM111.897 368.716C110.85 368.716 110.03 368.206 109.568 367.379H109.541V368.592H108.397V358.648H109.596V362.624H109.623C110.071 361.804 110.905 361.301 111.918 361.301C113.723 361.301 114.943 362.762 114.943 365.008C114.943 367.262 113.73 368.716 111.897 368.716ZM111.663 362.356C110.45 362.356 109.589 363.417 109.589 365.008C109.589 366.607 110.45 367.661 111.663 367.661C112.931 367.661 113.716 366.648 113.716 365.008C113.716 363.382 112.931 362.356 111.663 362.356Z" fill="#82808A"/>
<path d="M140.088 368.592H138.931V360.929H138.882L135.713 368.523H134.665L131.496 360.929H131.448V368.592H130.29V358.648H131.73L135.162 366.945H135.217L138.648 358.648H140.088V368.592ZM144.089 367.696C145.219 367.696 146.088 366.903 146.088 365.87V365.284L144.172 365.401C143.207 365.463 142.656 365.89 142.656 366.566C142.656 367.248 143.228 367.696 144.089 367.696ZM143.821 368.716C142.394 368.716 141.436 367.854 141.436 366.566C141.436 365.339 142.38 364.567 144.034 364.471L146.088 364.354V363.754C146.088 362.879 145.509 362.356 144.516 362.356C143.593 362.356 143.014 362.79 142.863 363.492H141.705C141.788 362.252 142.849 361.301 144.544 361.301C146.225 361.301 147.286 362.211 147.286 363.637V368.592H146.15V367.358H146.122C145.695 368.178 144.785 368.716 143.821 368.716ZM148.91 368.592V361.425H150.04V362.597H150.068C150.302 361.804 150.964 361.301 151.804 361.301C152.011 361.301 152.19 361.336 152.287 361.35V362.514C152.19 362.48 151.935 362.445 151.646 362.445C150.715 362.445 150.109 363.114 150.109 364.126V368.592H148.91Z" fill="#82808A"/>
<path d="M174.146 368.592L173.147 365.746H169.192L168.192 368.592H166.89L170.556 358.648H171.782L175.448 368.592H174.146ZM171.148 360.157L169.557 364.691H172.782L171.19 360.157H171.148ZM179.98 361.301C181.806 361.301 183.046 362.762 183.046 365.008C183.046 367.255 181.813 368.716 180.007 368.716C178.981 368.716 178.154 368.213 177.726 367.427H177.699V370.983H176.5V361.425H177.637V362.638H177.664C178.105 361.832 178.939 361.301 179.98 361.301ZM179.745 367.661C181.02 367.661 181.819 366.635 181.819 365.008C181.819 363.389 181.02 362.356 179.745 362.356C178.519 362.356 177.692 363.417 177.692 365.008C177.692 366.607 178.519 367.661 179.745 367.661ZM184.36 368.592V361.425H185.49V362.597H185.517C185.751 361.804 186.413 361.301 187.254 361.301C187.46 361.301 187.639 361.336 187.736 361.35V362.514C187.639 362.48 187.385 362.445 187.095 362.445C186.165 362.445 185.559 363.114 185.559 364.126V368.592H184.36Z" fill="#82808A"/>
<path d="M213.87 368.592H212.712V360.929H212.664L209.494 368.523H208.447L205.277 360.929H205.229V368.592H204.071V358.648H205.511L208.943 366.945H208.998L212.429 358.648H213.87V368.592ZM217.87 367.696C219.001 367.696 219.869 366.903 219.869 365.87V365.284L217.953 365.401C216.988 365.463 216.437 365.89 216.437 366.566C216.437 367.248 217.009 367.696 217.87 367.696ZM217.602 368.716C216.175 368.716 215.218 367.854 215.218 366.566C215.218 365.339 216.162 364.567 217.815 364.471L219.869 364.354V363.754C219.869 362.879 219.29 362.356 218.298 362.356C217.374 362.356 216.796 362.79 216.644 363.492H215.486C215.569 362.252 216.63 361.301 218.325 361.301C220.007 361.301 221.068 362.211 221.068 363.637V368.592H219.931V367.358H219.903C219.476 368.178 218.566 368.716 217.602 368.716ZM223.284 371.272C223.139 371.272 222.898 371.258 222.767 371.231V370.225C222.898 370.252 223.084 370.259 223.236 370.259C223.904 370.259 224.276 369.935 224.552 369.101L224.717 368.598L222.071 361.425H223.353L225.337 367.393H225.358L227.343 361.425H228.604L225.785 369.095C225.172 370.769 224.579 371.272 223.284 371.272Z" fill="#82808A"/>
<path d="M242.809 366.256H244.042C244.07 367.096 244.711 367.682 245.613 367.682C246.709 367.682 247.302 367.027 247.302 365.815V358.648H248.542V365.822C248.542 367.71 247.453 368.826 245.62 368.826C243.967 368.826 242.809 367.765 242.809 366.256ZM256.271 361.425V368.592H255.134V367.427H255.106C254.679 368.254 253.935 368.716 252.832 368.716C251.268 368.716 250.352 367.703 250.352 366.076V361.425H251.551V365.863C251.551 367.027 252.095 367.654 253.204 367.654C254.369 367.654 255.072 366.855 255.072 365.635V361.425H256.271ZM257.929 368.592V361.425H259.059V362.569H259.086C259.486 361.797 260.251 361.301 261.36 361.301C262.931 361.301 263.841 362.314 263.841 363.94V368.592H262.642V364.154C262.642 362.996 262.098 362.362 260.995 362.362C259.865 362.362 259.128 363.162 259.128 364.374V368.592H257.929Z" fill="#82808A"/>
<path d="M32.6973 196.433H36.9941C40.786 196.433 43.0274 198.798 43.0274 202.82C43.0274 206.851 40.7948 209.217 36.9941 209.217H32.6973V196.433ZM34.292 197.868V207.782H36.8878C39.7848 207.782 41.3972 206.01 41.3972 202.838C41.3972 199.64 39.7937 197.868 36.8878 197.868H34.292ZM47.8114 208.065C49.2644 208.065 50.3807 207.046 50.3807 205.717V204.964L47.9177 205.115C46.6774 205.195 45.9687 205.744 45.9687 206.612C45.9687 207.489 46.704 208.065 47.8114 208.065ZM47.4659 209.376C45.632 209.376 44.4006 208.269 44.4006 206.612C44.4006 205.035 45.6143 204.043 47.7406 203.919L50.3807 203.768V202.998C50.3807 201.872 49.6365 201.199 48.3607 201.199C47.1736 201.199 46.4294 201.757 46.2345 202.661H44.7461C44.8524 201.066 46.2167 199.844 48.3962 199.844C50.5578 199.844 51.9222 201.013 51.9222 202.847V209.217H50.4604V207.631H50.425C49.8757 208.685 48.7062 209.376 47.4659 209.376ZM53.7206 202.546C53.7206 200.969 55.1293 199.844 57.1581 199.844C59.0628 199.844 60.4626 200.978 60.5335 202.537H59.0628C58.9565 201.651 58.2389 201.102 57.1049 201.102C55.9798 201.102 55.2356 201.66 55.2356 202.466C55.2356 203.104 55.7229 203.529 56.7683 203.795L58.1946 204.14C60.0551 204.61 60.7284 205.283 60.7284 206.639C60.7284 208.242 59.2135 209.376 57.0606 209.376C55.0407 209.376 53.632 208.278 53.4726 206.648H55.0141C55.1824 207.604 55.9089 208.118 57.1581 208.118C58.4072 208.118 59.178 207.587 59.178 206.754C59.178 206.098 58.7971 205.744 57.7605 205.469L56.1392 205.053C54.518 204.637 53.7206 203.804 53.7206 202.546ZM62.4117 209.217V196.433H63.9532V201.474H63.9887C64.5025 200.446 65.5125 199.844 66.9122 199.844C68.9322 199.844 70.1548 201.208 70.1548 203.263V209.217H68.6132V203.547C68.6132 202.085 67.8779 201.208 66.4338 201.208C64.9012 201.208 63.9532 202.253 63.9532 203.848V209.217H62.4117ZM76.693 209.376C75.3464 209.376 74.2921 208.721 73.6985 207.658H73.6631V209.217H72.1924V196.433H73.734V201.545H73.7694C74.3453 200.49 75.4172 199.844 76.7196 199.844C79.0407 199.844 80.6088 201.722 80.6088 204.61C80.6088 207.507 79.0496 209.376 76.693 209.376ZM76.3918 201.199C74.8325 201.199 73.7251 202.563 73.7251 204.61C73.7251 206.665 74.8325 208.021 76.3918 208.021C78.0219 208.021 79.0319 206.718 79.0319 204.61C79.0319 202.519 78.0219 201.199 76.3918 201.199ZM85.9953 209.376C83.4438 209.376 81.7251 207.542 81.7251 204.61C81.7251 201.669 83.4438 199.844 85.9953 199.844C88.538 199.844 90.2567 201.669 90.2567 204.61C90.2567 207.542 88.538 209.376 85.9953 209.376ZM85.9953 208.021C87.6255 208.021 88.6886 206.78 88.6886 204.61C88.6886 202.439 87.6255 201.199 85.9953 201.199C84.3652 201.199 83.2932 202.439 83.2932 204.61C83.2932 206.78 84.3652 208.021 85.9953 208.021ZM94.8547 208.065C96.3077 208.065 97.4239 207.046 97.4239 205.717V204.964L94.961 205.115C93.7207 205.195 93.012 205.744 93.012 206.612C93.012 207.489 93.7473 208.065 94.8547 208.065ZM94.5092 209.376C92.6753 209.376 91.4439 208.269 91.4439 206.612C91.4439 205.035 92.6576 204.043 94.7838 203.919L97.4239 203.768V202.998C97.4239 201.872 96.6797 201.199 95.404 201.199C94.2168 201.199 93.4727 201.757 93.2777 202.661H91.7894C91.8957 201.066 93.26 199.844 95.4394 199.844C97.6011 199.844 98.9655 201.013 98.9655 202.847V209.217H97.5037V207.631H97.4682C96.919 208.685 95.7495 209.376 94.5092 209.376ZM100.923 209.217V200.003H102.376V201.509H102.412C102.713 200.49 103.563 199.844 104.644 199.844C104.91 199.844 105.14 199.888 105.264 199.906V201.403C105.14 201.359 104.813 201.314 104.441 201.314C103.245 201.314 102.465 202.174 102.465 203.476V209.217H100.923ZM109.57 209.376C107.222 209.376 105.628 207.498 105.628 204.61C105.628 201.722 107.214 199.844 109.535 199.844C110.855 199.844 111.918 200.49 112.467 201.5H112.503V196.433H114.044V209.217H112.573V207.658H112.547C111.953 208.721 110.899 209.376 109.57 209.376ZM109.862 201.199C108.232 201.199 107.205 202.528 107.205 204.61C107.205 206.701 108.232 208.021 109.862 208.021C111.448 208.021 112.511 206.674 112.511 204.61C112.511 202.555 111.448 201.199 109.862 201.199ZM121.681 197.85V202.749H124.737C126.376 202.749 127.307 201.864 127.307 200.295C127.307 198.763 126.314 197.85 124.667 197.85H121.681ZM121.681 204.158V209.217H120.086V196.433H124.879C127.342 196.433 128.954 197.939 128.954 200.242C128.954 202.023 127.989 203.405 126.385 203.91L129.344 209.217H127.475L124.737 204.158H121.681ZM134.421 201.181C132.977 201.181 131.967 202.289 131.869 203.821H136.875C136.839 202.28 135.874 201.181 134.421 201.181ZM136.839 206.577H138.354C138.088 208.189 136.529 209.376 134.518 209.376C131.878 209.376 130.274 207.542 130.274 204.645C130.274 201.784 131.905 199.844 134.447 199.844C136.937 199.844 138.469 201.651 138.469 204.442V205.026H131.86V205.115C131.86 206.878 132.897 208.039 134.554 208.039C135.723 208.039 136.582 207.445 136.839 206.577ZM144.503 199.844C146.85 199.844 148.445 201.722 148.445 204.61C148.445 207.498 146.859 209.376 144.538 209.376C143.218 209.376 142.155 208.73 141.606 207.72H141.57V212.291H140.029V200.003H141.49V201.562H141.526C142.093 200.526 143.165 199.844 144.503 199.844ZM144.201 208.021C145.84 208.021 146.868 206.701 146.868 204.61C146.868 202.528 145.84 201.199 144.201 201.199C142.624 201.199 141.561 202.563 141.561 204.61C141.561 206.665 142.624 208.021 144.201 208.021ZM153.823 209.376C151.271 209.376 149.552 207.542 149.552 204.61C149.552 201.669 151.271 199.844 153.823 199.844C156.365 199.844 158.084 201.669 158.084 204.61C158.084 207.542 156.365 209.376 153.823 209.376ZM153.823 208.021C155.453 208.021 156.516 206.78 156.516 204.61C156.516 202.439 155.453 201.199 153.823 201.199C152.193 201.199 151.121 202.439 151.121 204.61C151.121 206.78 152.193 208.021 153.823 208.021ZM159.643 209.217V200.003H161.096V201.509H161.132C161.433 200.49 162.283 199.844 163.364 199.844C163.63 199.844 163.86 199.888 163.984 199.906V201.403C163.86 201.359 163.533 201.314 163.16 201.314C161.964 201.314 161.185 202.174 161.185 203.476V209.217H159.643ZM165.739 197.779H167.28V200.003H169.07V201.27H167.28V206.745C167.28 207.587 167.634 207.968 168.423 207.968C168.6 207.968 168.955 207.941 169.061 207.923V209.217C168.875 209.261 168.45 209.288 168.086 209.288C166.394 209.288 165.739 208.597 165.739 206.825V201.27H164.365V200.003H165.739V197.779Z" fill="white"/>
<path d="M64.6084 312.298C64.6084 312.298 72.0983 310.19 80.6139 315.254C96.8101 324.885 97.7341 307.248 103.74 298.743C109.234 290.963 113.785 295.71 119.903 305.225C124.415 312.243 130.991 303.849 137.801 301.953C144.026 300.219 148.439 286.403 157.067 282.889C163.906 280.104 169.464 287.755 177.339 285.051C188.021 281.383 189.613 267.334 197.248 267.334C206.671 267.334 212.573 292.404 221.145 292.404C229.667 292.404 234.052 267.621 243.374 275.144C250.5 280.896 254.616 259.791 254.616 259.791" stroke="white" stroke-width="2.016" stroke-linecap="round" stroke-linejoin="round"/>
<path d="M64.6084 300.045C65.1682 300.388 67.5443 299.621 70.4512 300.056C72.74 300.399 74.7311 301.499 77.6614 301.831C83.2231 302.462 87.7623 303.111 90.3415 304.618C92.9207 306.125 96.792 311.235 101.405 311.235C106.019 311.235 108.367 308.577 110.107 306.826C111.774 305.149 114.985 301.121 120.177 300.677C125.907 300.187 130.619 297.198 137.457 296.696C141.101 296.428 144.02 296.949 147.277 297.759C150.535 298.569 149.897 298.918 157.223 299.543C163.268 300.058 164.849 301.831 170.773 302.045C176.697 302.258 179.436 295.58 185.691 296.137C191.945 296.695 193.194 295.253 199.073 297.985C204.952 300.717 210.384 298.537 217.764 297.98C225.144 297.422 227.066 299.152 230.568 298.929C234.07 298.706 237.224 302.922 240.226 303.535C243.228 304.148 244.079 301.921 250.458 301.921C256.838 301.921 256.155 299.71 259.658 299.543C263.16 299.375 265.618 299.658 266.744 298.933" stroke="#FFCD29" stroke-width="2.016" stroke-linecap="round" stroke-linejoin="round"/>
<g clip-path="url(#clip2_90_685)">
<path d="M50.7157 340.536C48.3935 340.536 47.0498 338.538 47.0498 335.396C47.0498 332.281 48.4073 330.262 50.7157 330.262C53.024 330.262 54.3677 332.267 54.3677 335.389C54.3677 338.531 53.0309 340.536 50.7157 340.536ZM50.7157 339.454C52.266 339.454 53.1205 337.876 53.1205 335.396C53.1205 332.95 52.2523 331.351 50.7157 331.351C49.179 331.351 48.297 332.963 48.297 335.389C48.297 337.87 49.1584 339.454 50.7157 339.454Z" fill="#82808A"/>
<path d="M42.5716 295.139C40.6698 295.139 39.2641 293.954 39.1608 292.259H40.3804C40.4906 293.32 41.3933 294.05 42.5854 294.05C43.936 294.05 44.8731 293.113 44.8731 291.776C44.8731 290.44 43.9291 289.482 42.6061 289.482C41.6758 289.482 40.8834 289.902 40.4769 290.598H39.3123L39.8567 285.03H45.5484V286.133H40.8765L40.5733 289.372H40.6009C41.0488 288.772 41.8757 288.414 42.8266 288.414C44.7353 288.414 46.1134 289.813 46.1134 291.742C46.1134 293.74 44.6457 295.139 42.5716 295.139ZM50.9894 295.139C48.6673 295.139 47.3236 293.141 47.3236 289.999C47.3236 286.884 48.681 284.865 50.9894 284.865C53.2978 284.865 54.6414 286.87 54.6414 289.992C54.6414 293.134 53.3046 295.139 50.9894 295.139ZM50.9894 294.057C52.5398 294.057 53.3942 292.479 53.3942 289.999C53.3942 287.552 52.526 285.954 50.9894 285.954C49.4528 285.954 48.5708 287.566 48.5708 289.992C48.5708 292.472 49.4321 294.057 50.9894 294.057Z" fill="#82808A"/>
<path d="M34.6242 248.574V239.947H34.5966L31.9644 241.842V240.532L34.6104 238.631H35.8231V248.574H34.6242ZM41.9257 248.739C39.6035 248.739 38.2599 246.741 38.2599 243.599C38.2599 240.484 39.6173 238.465 41.9257 238.465C44.234 238.465 45.5777 240.47 45.5777 243.592C45.5777 246.734 44.2409 248.739 41.9257 248.739ZM41.9257 247.657C43.4761 247.657 44.3305 246.079 44.3305 243.599C44.3305 241.153 43.4623 239.554 41.9257 239.554C40.3891 239.554 39.5071 241.166 39.5071 243.592C39.5071 246.072 40.3684 247.657 41.9257 247.657ZM50.5846 248.739C48.2625 248.739 46.9188 246.741 46.9188 243.599C46.9188 240.484 48.2763 238.465 50.5846 238.465C52.893 238.465 54.2367 240.47 54.2367 243.592C54.2367 246.734 52.8999 248.739 50.5846 248.739ZM50.5846 247.657C52.135 247.657 52.9895 246.079 52.9895 243.599C52.9895 241.153 52.1212 239.554 50.5846 239.554C49.048 239.554 48.166 241.166 48.166 243.592C48.166 246.072 49.0274 247.657 50.5846 247.657Z" fill="#82808A"/>
</g>
</g>
<g clip-path="url(#clip3_90_685)">
<g filter="url(#filter4_d_90_685)">
<rect x="299" y="4" width="230" height="217" rx="16" fill="#202020"/>
<rect x="299.5" y="4.5" width="229" height="216" rx="15.5" stroke="#484A4C"/>
</g>
<path d="M340.251 67.4905C334.134 67.4905 329.669 63.1838 329.669 54.5881V54.553C329.669 46.2385 333.694 41.2463 340.304 41.2463C345.208 41.2463 348.899 44.0764 349.655 47.9963L349.69 48.1721H344.452L344.399 48.0139C343.767 46.4846 342.36 45.4475 340.286 45.4475C336.577 45.4475 334.96 48.9807 334.767 53.4631C334.749 53.8147 334.731 54.1663 334.731 54.4299H334.837C335.839 52.0745 338.335 50.3518 341.763 50.3518C346.667 50.3518 350.024 53.8323 350.024 58.5784V58.6135C350.024 63.7991 345.894 67.4905 340.251 67.4905ZM335.54 58.7366C335.54 61.2854 337.579 63.2717 340.181 63.2717C342.765 63.2717 344.856 61.303 344.856 58.8069V58.7717C344.856 56.135 342.87 54.2717 340.233 54.2717C337.579 54.2717 335.54 56.1174 335.54 58.7014V58.7366ZM354.823 67.051L365.739 46.01V45.9045H352.837V41.6858H370.978V45.9573L360.396 67.051H354.823ZM373.983 67.051V48.2073H379.116V51.3713H379.222C379.995 49.2268 381.964 47.8206 384.495 47.8206C387.132 47.8206 389.048 49.2268 389.681 51.7053H389.786C390.63 49.3323 392.88 47.8206 395.64 47.8206C399.331 47.8206 401.81 50.3694 401.81 54.1663V67.051H396.677V55.4495C396.677 53.2698 395.587 52.0745 393.601 52.0745C391.649 52.0745 390.366 53.4983 390.366 55.5901V67.051H385.427V55.2913C385.427 53.2698 384.284 52.0745 382.386 52.0745C380.435 52.0745 379.116 53.551 379.116 55.678V67.051H373.983ZM405.501 58.9827V54.5002H412.796V47.7327H417.278V54.5002H424.591V58.9827H417.278V65.7327H412.796V58.9827H405.501Z" fill="white"/>
<path d="M336.604 99.4183V100.758H329.361V88.826H330.849V99.4183H336.604ZM341.334 100.907C338.953 100.907 337.348 99.195 337.348 96.4581C337.348 93.7128 338.953 92.0095 341.334 92.0095C343.707 92.0095 345.311 93.7128 345.311 96.4581C345.311 99.195 343.707 100.907 341.334 100.907ZM341.334 99.6415C342.855 99.6415 343.848 98.4839 343.848 96.4581C343.848 94.4322 342.855 93.2746 341.334 93.2746C339.812 93.2746 338.812 94.4322 338.812 96.4581C338.812 98.4839 339.812 99.6415 341.334 99.6415ZM346.766 100.758V92.1583H348.123V93.564H348.156C348.437 92.6131 349.231 92.0095 350.239 92.0095C350.487 92.0095 350.702 92.0508 350.818 92.0674V93.4648C350.702 93.4234 350.396 93.3821 350.049 93.3821C348.933 93.3821 348.205 94.1842 348.205 95.3997V100.758H346.766ZM355.027 93.2581C353.679 93.2581 352.737 94.2916 352.646 95.7221H357.317C357.284 94.2834 356.383 93.2581 355.027 93.2581ZM357.284 98.2937H358.698C358.45 99.7986 356.995 100.907 355.118 100.907C352.654 100.907 351.157 99.195 351.157 96.4911C351.157 93.8203 352.679 92.0095 355.052 92.0095C357.375 92.0095 358.806 93.6963 358.806 96.301V96.8467H352.637V96.9294C352.637 98.5749 353.605 99.6581 355.151 99.6581C356.242 99.6581 357.045 99.1041 357.284 98.2937ZM360.261 100.758V92.1583H361.617V93.5309H361.65C362.055 92.6214 362.932 92.0095 364.09 92.0095C365.264 92.0095 366.132 92.6048 366.504 93.6467H366.537C367.017 92.6214 368.025 92.0095 369.233 92.0095C370.936 92.0095 372.036 93.1175 372.036 94.8208V100.758H370.597V95.1516C370.597 93.9774 369.944 93.2829 368.811 93.2829C367.67 93.2829 366.868 94.1263 366.868 95.2922V100.758H365.429V94.9945C365.429 93.9609 364.734 93.2829 363.668 93.2829C362.527 93.2829 361.7 94.1759 361.7 95.3666V100.758H360.261ZM379.056 100.758H377.568V88.826H379.056V100.758ZM385.324 92.0095C387.515 92.0095 389.003 93.7624 389.003 96.4581C389.003 99.1537 387.523 100.907 385.357 100.907C384.125 100.907 383.132 100.303 382.62 99.3604H382.587V103.627H381.148V92.1583H382.512V93.6136H382.545C383.075 92.6462 384.075 92.0095 385.324 92.0095ZM385.043 99.6415C386.572 99.6415 387.531 98.4095 387.531 96.4581C387.531 94.5149 386.572 93.2746 385.043 93.2746C383.571 93.2746 382.578 94.548 382.578 96.4581C382.578 98.3764 383.571 99.6415 385.043 99.6415ZM390.31 94.5314C390.31 93.0596 391.624 92.0095 393.518 92.0095C395.296 92.0095 396.602 93.0679 396.668 94.5232H395.296C395.197 93.6963 394.527 93.1836 393.468 93.1836C392.418 93.1836 391.724 93.7046 391.724 94.457C391.724 95.0524 392.178 95.4493 393.154 95.6973L394.485 96.0198C396.222 96.4581 396.85 97.0865 396.85 98.3516C396.85 99.8482 395.436 100.907 393.427 100.907C391.542 100.907 390.227 99.8813 390.078 98.3599H391.517C391.674 99.2529 392.352 99.7325 393.518 99.7325C394.684 99.7325 395.403 99.2364 395.403 98.4591C395.403 97.8472 395.048 97.5165 394.08 97.2601L392.567 96.8715C391.054 96.4829 390.31 95.7056 390.31 94.5314ZM405.408 92.1583V100.758H404.044V99.3604H404.011C403.498 100.353 402.605 100.907 401.282 100.907C399.405 100.907 398.306 99.6911 398.306 97.7397V92.1583H399.744V97.4834C399.744 98.8808 400.398 99.6333 401.729 99.6333C403.126 99.6333 403.97 98.6741 403.97 97.2105V92.1583H405.408ZM407.277 100.758V92.1583H408.633V93.5309H408.666C409.071 92.6214 409.948 92.0095 411.106 92.0095C412.28 92.0095 413.148 92.6048 413.52 93.6467H413.553C414.033 92.6214 415.042 92.0095 416.249 92.0095C417.952 92.0095 419.052 93.1175 419.052 94.8208V100.758H417.613V95.1516C417.613 93.9774 416.96 93.2829 415.827 93.2829C414.686 93.2829 413.884 94.1263 413.884 95.2922V100.758H412.445V94.9945C412.445 93.9609 411.751 93.2829 410.684 93.2829C409.543 93.2829 408.716 94.1759 408.716 95.3666V100.758H407.277Z" fill="#787878"/>
<rect x="328.053" y="153.324" width="9.68421" height="38.6722" rx="4.84211" fill="#FF5400"/>
<rect x="351.053" y="141.239" width="9.68421" height="50.7573" rx="4.84211" fill="#FF5400"/>
<rect x="374.053" y="153.324" width="9.68421" height="38.6722" rx="4.84211" fill="#FF5400"/>
<rect x="397.053" y="129.154" width="9.68421" height="62.8424" rx="4.84211" fill="#FF5400"/>
<rect x="421.263" y="141.239" width="9.68421" height="50.7573" rx="4.84211" fill="#FF5400"/>
<rect x="444.263" y="129.154" width="9.68421" height="62.8424" rx="4.84211" fill="#FF5400"/>
<rect x="467.263" y="117.068" width="9.68421" height="74.9274" rx="4.84211" fill="white"/>
<rect x="490.263" y="129.154" width="9.68421" height="62.8424" rx="4.84211" fill="#FF5400"/>
</g>
<defs>
<filter id="filter0_d_90_685" x="292" y="224" width="244" height="186" filterUnits="userSpaceOnUse" color-interpolation-filters="sRGB">
<feFlood flood-opacity="0" result="BackgroundImageFix"/>
<feColorMatrix in="SourceAlpha" type="matrix" values="0 0 0 0 0 0 0 0 0 0 0 0 0 0 0 0 0 0 127 0" result="hardAlpha"/>
<feOffset dy="3"/>
<feGaussianBlur stdDeviation="3.5"/>
<feColorMatrix type="matrix" values="0 0 0 0 0 0 0 0 0 0 0 0 0 0 0 0 0 0 0.0825349 0"/>
<feBlend mode="normal" in2="BackgroundImageFix" result="effect1_dropShadow_90_685"/>
<feBlend mode="normal" in="SourceGraphic" in2="effect1_dropShadow_90_685" result="shape"/>
</filter>
<filter id="filter1_d_90_685" x="435.802" y="329.708" width="27.165" height="27.1384" filterUnits="userSpaceOnUse" color-interpolation-filters="sRGB">
<feFlood flood-opacity="0" result="BackgroundImageFix"/>
<feColorMatrix in="SourceAlpha" type="matrix" values="0 0 0 0 0 0 0 0 0 0 0 0 0 0 0 0 0 0 127 0" result="hardAlpha"/>
<feOffset dy="3"/>
<feGaussianBlur stdDeviation="3"/>
<feColorMatrix type="matrix" values="0 0 0 0 0.268354 0 0 0 0 0.268354 0 0 0 0 0.31049 0 0 0 0.15 0"/>
<feBlend mode="normal" in2="BackgroundImageFix" result="effect1_dropShadow_90_685"/>
<feBlend mode="normal" in="SourceGraphic" in2="effect1_dropShadow_90_685" result="shape"/>
</filter>
<filter id="filter2_d_90_685" x="0" y="0" width="298" height="170" filterUnits="userSpaceOnUse" color-interpolation-filters="sRGB">
<feFlood flood-opacity="0" result="BackgroundImageFix"/>
<feColorMatrix in="SourceAlpha" type="matrix" values="0 0 0 0 0 0 0 0 0 0 0 0 0 0 0 0 0 0 127 0" result="hardAlpha"/>
<feOffset dy="3"/>
<feGaussianBlur stdDeviation="3.5"/>
<feColorMatrix type="matrix" values="0 0 0 0 0 0 0 0 0 0 0 0 0 0 0 0 0 0 0.0825349 0"/>
<feBlend mode="normal" in2="BackgroundImageFix" result="effect1_dropShadow_90_685"/>
<feBlend mode="normal" in="SourceGraphic" in2="effect1_dropShadow_90_685" result="shape"/>
</filter>
<filter id="filter3_d_90_685" x="0" y="164" width="298" height="246" filterUnits="userSpaceOnUse" color-interpolation-filters="sRGB">
<feFlood flood-opacity="0" result="BackgroundImageFix"/>
<feColorMatrix in="SourceAlpha" type="matrix" values="0 0 0 0 0 0 0 0 0 0 0 0 0 0 0 0 0 0 127 0" result="hardAlpha"/>
<feOffset dy="3"/>
<feGaussianBlur stdDeviation="3.5"/>
<feColorMatrix type="matrix" values="0 0 0 0 0 0 0 0 0 0 0 0 0 0 0 0 0 0 0.0825349 0"/>
<feBlend mode="normal" in2="BackgroundImageFix" result="effect1_dropShadow_90_685"/>
<feBlend mode="normal" in="SourceGraphic" in2="effect1_dropShadow_90_685" result="shape"/>
</filter>
<filter id="filter4_d_90_685" x="292" y="0" width="244" height="231" filterUnits="userSpaceOnUse" color-interpolation-filters="sRGB">
<feFlood flood-opacity="0" result="BackgroundImageFix"/>
<feColorMatrix in="SourceAlpha" type="matrix" values="0 0 0 0 0 0 0 0 0 0 0 0 0 0 0 0 0 0 127 0" result="hardAlpha"/>
<feOffset dy="3"/>
<feGaussianBlur stdDeviation="3.5"/>
<feColorMatrix type="matrix" values="0 0 0 0 0 0 0 0 0 0 0 0 0 0 0 0 0 0 0.0825349 0"/>
<feBlend mode="normal" in2="BackgroundImageFix" result="effect1_dropShadow_90_685"/>
<feBlend mode="normal" in="SourceGraphic" in2="effect1_dropShadow_90_685" result="shape"/>
</filter>
<clipPath id="clip0_90_685">
<rect width="230" height="172" fill="white" transform="translate(299 228)"/>
</clipPath>
<clipPath id="clip1_90_685">
<rect width="284" height="232" fill="white" transform="translate(7 168)"/>
</clipPath>
<clipPath id="clip2_90_685">
<rect width="26.0499" height="108.768" fill="white" transform="translate(31.291 234.588)"/>
</clipPath>
<clipPath id="clip3_90_685">
<rect width="230" height="217" fill="white" transform="translate(299 4)"/>
</clipPath>
</defs>
</svg>
