<svg width="36" height="36" viewBox="0 0 36 36" fill="none" xmlns="http://www.w3.org/2000/svg">
<path d="M4.5 28.5H31.5V31.5H4.5V28.5ZM9 24C10.65 24 12 22.65 12 21C12 20.25 11.7 19.5 11.25 19.05L13.2 15H13.5C14.25 15 15 14.7 15.45 14.25L19.5 16.35V16.5C19.5 18.15 20.85 19.5 22.5 19.5C24.15 19.5 25.5 18.15 25.5 16.5C25.5 15.75 25.2 15.15 24.75 14.55L26.7 10.5H27C28.65 10.5 30 9.15 30 7.5C30 5.85 28.65 4.5 27 4.5C25.35 4.5 24 5.85 24 7.5C24 8.25 24.3 9 24.75 9.45L22.8 13.5H22.5C21.75 13.5 21 13.8 20.55 14.25L16.5 12.3V12C16.5 10.35 15.15 9 13.5 9C11.85 9 10.5 10.35 10.5 12C10.5 12.75 10.8 13.5 11.25 13.95L9.3 18H9C7.35 18 6 19.35 6 21C6 22.65 7.35 24 9 24Z" fill="black"/>
</svg>
