<svg width="24" height="24" viewBox="0 0 24 24" fill="none" xmlns="http://www.w3.org/2000/svg">
<path d="M0 24V21H4.125L3.525 20.475C2.3 19.25 1.4065 17.919 0.8445 16.482C0.2825 15.045 0.001 13.576 0 12.075C0 9.3 0.8315 6.8315 2.4945 4.6695C4.1575 2.5075 6.326 1.076 9 0.375V3.525C7.2 4.175 5.75 5.2815 4.65 6.8445C3.55 8.4075 3 10.151 3 12.075C3 13.2 3.2125 14.294 3.6375 15.357C4.0625 16.42 4.725 17.401 5.625 18.3L6 18.675V15H9V24H0ZM15 23.625V20.475C16.8 19.825 18.25 18.719 19.35 17.157C20.45 15.595 21 13.851 21 11.925C21 10.8 20.7875 9.7065 20.3625 8.6445C19.9375 7.5825 19.275 6.601 18.375 5.7L18 5.325V9H15V0H24V3H19.875L20.475 3.525C21.7 4.75 22.594 6.0815 23.157 7.5195C23.72 8.9575 24.001 10.426 24 11.925C24 14.7 23.169 17.169 21.507 19.332C19.845 21.495 17.676 22.926 15 23.625Z" fill="#2D2F31"/>
</svg>
