<svg width="48" height="48" viewBox="0 0 48 48" fill="none" xmlns="http://www.w3.org/2000/svg">
<rect width="48" height="48" rx="12" fill="#93E7FE"/>
<path d="M25.001 15C28.8705 15.0001 32 18.1301 32 22C32 24.79 30.3597 27.2003 28 28.3203V33H21.001V30H20.001C18.9013 29.9998 18.002 29.0999 18.002 28V25H16.502C16.0921 25 15.8519 24.5302 16.1016 24.2002L18.0215 21.6396C18.2016 17.9398 21.2515 15 25.001 15ZM24.2012 18C24.1012 18 24.021 18.07 24.001 18.1699L23.8506 19.2305C23.6108 19.3305 23.3805 19.4702 23.1807 19.6201L22.1807 19.2197C22.0909 19.19 21.9914 19.2201 21.9414 19.3096L21.1416 20.6904C21.0917 20.7904 21.1115 20.8902 21.1914 20.9502L22.041 21.6104C22.021 21.7303 22.001 21.8701 22.001 22C22.001 22.1299 22.0115 22.2598 22.0215 22.3896L21.1816 23.0498C21.1017 23.1097 21.0811 23.2198 21.1309 23.2998L21.9307 24.6904C21.9806 24.7802 22.0908 24.81 22.1807 24.7803L23.1709 24.3799C23.3808 24.5398 23.6008 24.6696 23.8506 24.7695L24.001 25.8301C24.021 25.93 24.1012 26 24.2012 26H25.8008C25.9007 26 25.991 25.93 26.001 25.8301L26.1611 24.7695C26.4009 24.6696 26.6212 24.5398 26.8311 24.3799L27.8203 24.7803C27.9002 24.8102 28.0105 24.7802 28.0605 24.6904L28.8604 23.2998C28.9102 23.2099 28.8905 23.1098 28.8105 23.0498L27.9805 22.3896C27.9905 22.2598 28 22.1299 28 22C28 21.8602 27.9908 21.7302 27.9609 21.6104L28.8105 20.9502C28.8904 20.8903 28.9101 20.7804 28.8604 20.6904L28.0605 19.3096C28.0204 19.2198 27.9102 19.1898 27.8203 19.2197L26.8203 19.6201C26.6104 19.4602 26.3903 19.3305 26.1504 19.2305L26.001 18.1699C25.981 18.07 25.9007 18 25.8008 18H24.2012ZM25.001 20.5703C25.7908 20.5704 26.4307 21.2101 26.4307 22C26.4307 22.7899 25.7908 23.4296 25.001 23.4297C24.2111 23.4297 23.5713 22.79 23.5713 22C23.5713 21.21 24.2111 20.5703 25.001 20.5703Z" fill="#2D2F31"/>
</svg>
