<svg width="48" height="48" viewBox="0 0 48 48" fill="none" xmlns="http://www.w3.org/2000/svg">
<rect width="48" height="48" rx="12" fill="#FFD978"/>
<path fill-rule="evenodd" clip-rule="evenodd" d="M26.82 15H31C32.1 15 33 15.9 33 17V31C33 32.1 32.1 33 31 33H17C16.86 33 16.73 32.99 16.6 32.97C16.21 32.89 15.86 32.69 15.59 32.42C15.41 32.23 15.26 32.02 15.16 31.78C15.06 31.54 15 31.27 15 31V17C15 16.72 15.06 16.46 15.16 16.23C15.26 15.99 15.41 15.77 15.59 15.59C15.86 15.32 16.21 15.12 16.6 15.04C16.73 15.01 16.86 15 17 15H21.18C21.6 13.84 22.7 13 24 13C25.3 13 26.4 13.84 26.82 15ZM21.59 27.59L23 26.17L20.83 24L23 21.83L21.59 20.41L18 24L21.59 27.59ZM24 16.25C23.59 16.25 23.25 15.91 23.25 15.5C23.25 15.09 23.59 14.75 24 14.75C24.41 14.75 24.75 15.09 24.75 15.5C24.75 15.91 24.41 16.25 24 16.25ZM25 26.17L26.41 27.59L30 24L26.41 20.41L25 21.83L27.17 24L25 26.17Z" fill="#2D2F31"/>
</svg>
