<svg width="179" height="47" viewBox="0 0 179 47" fill="none" xmlns="http://www.w3.org/2000/svg">
<path d="M42.6998 19.8925C42.0706 18.9569 41.2195 18.242 40.19 17.7572C39.6747 17.5142 39.157 17.2783 38.6499 17.02C38.4104 16.8979 38.3095 16.7383 38.4198 16.419C38.9246 14.9634 38.9868 13.4937 38.4457 12.0275C37.9033 10.5578 36.9337 9.43327 35.5861 8.66203C34.5742 8.08566 33.5248 7.5715 32.4788 7.05735C30.1663 5.91986 27.2821 7.082 26.4651 9.688C25.8265 11.7247 26.8771 13.8318 28.4301 14.6899C29.3739 15.2111 30.3659 15.6431 31.339 16.1091C32.2417 16.5423 33.1479 16.9684 34.0518 17.4015C34.3383 17.5389 34.3113 17.6985 34.0518 17.8324C33.6116 18.0577 33.1691 18.2761 32.7183 18.4827C30.5525 19.4863 27.4476 20.8551 25.2231 21.8775C22.9986 20.8563 19.8632 19.4723 17.681 18.4615C17.2325 18.2549 16.7876 18.0366 16.3474 17.81C16.088 17.6786 16.0622 17.5189 16.3486 17.3792C17.2513 16.9472 18.1587 16.5223 19.0614 16.088C20.0346 15.6219 21.0253 15.1888 21.9691 14.6688C23.5233 13.8118 24.5728 11.7047 23.9342 9.66687C23.1172 7.06087 20.2353 5.89873 17.9228 7.03622C16.8769 7.55155 15.8274 8.06453 14.8155 8.6409C13.4667 9.41214 12.4983 10.5367 11.956 12.0064C11.4148 13.4726 11.4747 14.9434 11.9806 16.3967C12.091 16.7172 11.99 16.878 11.7505 17.0001C11.2434 17.2572 10.7269 17.4943 10.2116 17.7349C9.17975 18.2209 8.32987 18.9346 7.70067 19.8714C6.7557 21.2777 6.40706 22.8319 6.70288 24.5246C7.00808 26.2549 7.85562 27.646 9.31005 28.6214C10.0566 29.1239 10.8784 29.5159 11.666 29.955C11.8668 30.0677 12.1356 30.1181 11.9971 30.4597C11.5404 31.589 11.4512 32.7629 11.6942 33.9438C12.0628 35.7363 13.0136 37.1708 14.5855 38.1146C15.7229 38.7978 16.9285 39.3648 18.1083 39.9752C18.9699 40.4212 19.9207 40.4835 20.8023 40.2264C22.1628 39.8284 23.17 38.9891 23.6677 37.557C24.3427 35.6107 23.3907 33.5012 21.6627 32.5962C20.0498 31.7522 18.444 30.8964 16.8358 30.043C16.5094 29.8681 16.1901 29.6826 15.8086 29.469C15.9683 29.3305 16.0516 29.2213 16.162 29.1708C17.4497 28.5674 18.7398 27.9735 20.0322 27.3795C21.4186 26.7444 23.7041 25.7901 25.1726 25.1327C26.6388 25.7889 28.9631 26.7585 30.3635 27.403C31.656 27.9946 32.946 28.5909 34.2338 29.1919C34.3441 29.2424 34.4275 29.3528 34.5895 29.4901C34.2068 29.7038 33.8875 29.8892 33.5612 30.0641C31.9529 30.9175 30.3471 31.7756 28.7342 32.6173C27.0062 33.5212 26.0554 35.6318 26.7292 37.5781C27.2281 39.0102 28.2329 39.8496 29.5946 40.2475C30.4762 40.5046 31.4259 40.4447 32.2887 39.9963C33.4684 39.3847 34.674 38.8177 35.8115 38.1357C37.3845 37.1919 38.3341 35.7586 38.7027 33.9649C38.9457 32.784 38.8553 31.6101 38.3999 30.4809C38.2613 30.1381 38.5302 30.0876 38.7309 29.9761C39.5197 29.5382 40.3415 29.145 41.0892 28.6426C42.5425 27.6659 43.3924 26.276 43.6952 24.5457C43.9946 22.8542 43.6459 21.3 42.6998 19.8925ZM30.2461 12.8739C29.7331 12.6297 29.2389 12.3562 28.9396 11.8292C28.632 11.288 28.7013 10.3571 29.1204 9.79248C29.5312 9.23841 30.4093 8.89329 31.0385 9.15506C31.9236 9.52366 32.7876 9.95212 33.6292 10.4135C34.2209 10.7363 34.8477 11.0697 35.3067 11.5462C36.3843 12.6673 36.6461 14.0255 36.1073 15.663C35.6589 15.4412 35.2539 15.2346 34.843 15.0409C33.3099 14.3166 31.7745 13.6029 30.2461 12.8739ZM15.0973 11.5251C15.5562 11.0497 16.1831 10.7151 16.7747 10.3912C17.6176 9.93217 18.4815 9.50135 19.3655 9.13276C19.9947 8.87216 20.8727 9.21728 21.2836 9.77135C21.7027 10.3372 21.7719 11.2669 21.4644 11.808C21.165 12.3339 20.6708 12.6086 20.1578 12.8528C18.6295 13.5817 17.094 14.2955 15.5621 15.0186C15.1513 15.2123 14.7451 15.42 14.299 15.6407C13.7579 14.0032 14.0196 12.6438 15.0973 11.5251ZM16.1667 32.4495C17.5671 33.189 18.9652 33.9309 20.3633 34.6704C21.1404 35.0825 21.4972 35.6119 21.4585 36.3232C21.4151 37.1121 20.8528 37.7624 20.0428 37.9009C19.7165 37.9561 19.3197 37.8328 19.0074 37.6814C17.9756 37.1778 16.959 36.6402 15.953 36.0838C14.3577 35.2034 13.61 33.1596 14.2744 31.4622C14.9083 31.7933 15.5386 32.1184 16.1667 32.4495ZM20.9819 24.2535C20.1214 24.6467 19.254 25.0294 18.3959 25.425C17.2666 25.945 16.1303 26.4521 15.021 27.0121C14.5303 27.2597 14.1065 27.6342 13.637 27.9277C13.5266 27.9981 13.3224 28.038 13.2202 27.9852C12.2999 27.4933 11.3397 27.052 10.4933 26.4498C9.44505 25.702 8.8405 24.176 9.07997 22.8659C9.35584 21.3563 10.2679 20.3761 11.6179 19.7422C12.1802 19.477 12.7343 19.1917 13.2977 18.9311C13.3787 18.8935 13.5254 18.9018 13.5959 18.9522C15.6408 20.4477 18.0378 21.2436 20.294 22.3154C20.9572 22.6312 21.6322 22.9199 22.2966 23.2275C22.3859 23.2697 22.4422 23.2486 22.7674 23.4118C22.1523 23.7053 21.4949 24.0175 20.9819 24.2535ZM34.451 36.1061C33.4449 36.6601 32.4284 37.1978 31.3965 37.7014C31.0855 37.8528 30.6875 37.9772 30.3635 37.9209C29.5524 37.7824 28.9901 37.132 28.9455 36.3432C28.9067 35.6342 29.2636 35.1036 30.0407 34.6927C31.4388 33.9508 32.8369 33.2101 34.2373 32.4694C34.8642 32.1384 35.4957 31.8132 36.1296 31.4822C36.7964 33.1831 36.0462 35.2245 34.451 36.1061ZM39.9106 26.4721C39.0643 27.0731 38.1052 27.5145 37.1837 28.0075C37.0816 28.0627 36.8773 28.0204 36.767 27.95C36.2975 27.6565 35.8737 27.2821 35.383 27.0344C34.2749 26.4733 33.1374 25.9685 32.0093 25.4473C31.1488 25.0517 30.2837 24.6702 29.4232 24.2758C28.9103 24.041 28.2517 23.7264 27.6354 23.4353C27.9618 23.2721 28.0169 23.2932 28.1062 23.251C28.7729 22.9434 29.4479 22.6546 30.1088 22.34C32.3661 21.2659 34.7632 20.4724 36.8069 18.9745C36.8773 18.9241 37.0241 18.9158 37.1051 18.9534C37.6685 19.2164 38.2226 19.5004 38.7873 19.7646C40.1349 20.3996 41.0481 21.3798 41.3228 22.8882C41.5623 24.2006 40.9577 25.7255 39.9106 26.4721Z" fill="white"/>
<path d="M72.9656 23.4857C72.9656 18.0943 76.5502 14.5837 81.9667 14.5837C87.4333 14.5837 90.9941 18.0943 90.9941 23.4857C90.9941 28.8771 87.4345 32.3877 81.9667 32.3877C76.5489 32.3827 72.9656 28.8758 72.9656 23.4857ZM88.0526 23.4857C88.0526 19.1789 86.0666 17.2442 81.9667 17.2442C77.8667 17.2442 75.9057 19.1789 75.9057 23.4857C75.9057 27.7925 77.8654 29.7008 81.9667 29.7008C86.0679 29.7008 88.0526 27.7925 88.0526 23.4857Z" fill="white"/>
<path d="M93.0539 32.1246V14.8484H96.0455L103.783 24.9579L106.027 28.1814H106.233L106.107 25.0619V14.8484H108.893V32.1246H105.902L98.1143 22.0415L95.9477 18.9985H95.7321L95.8349 21.9901V32.1246H93.0539Z" fill="white"/>
<path d="M130.462 32.1246V14.8484H133.247V32.1246H130.462Z" fill="white"/>
<path d="M135.83 32.1246V14.8484H144.805C148.724 14.8484 151.149 16.7053 151.149 19.9288C151.149 22.7913 149.268 24.5454 146.016 24.7259V24.9065C147.357 25.2676 147.977 26.0349 148.595 27.1245L151.479 32.1272H148.28L145.522 27.3627C144.747 25.996 143.948 25.4281 141.782 25.4281H138.612V32.1334L135.83 32.1246ZM138.612 23.279H144.776C147.097 23.279 148.258 22.4804 148.258 20.3138C148.258 18.1986 147.097 17.3473 144.776 17.3473H138.612V23.279Z" fill="white"/>
<path d="M151.87 32.1246L159.581 14.8484H163.5L171.211 32.1246H168.064L166.079 27.6373H156.95L154.964 32.1246H151.87ZM158.058 25.1359H164.971L162.624 19.8699L161.62 17.42H161.414L160.411 19.8699L158.058 25.1359Z" fill="white"/>
<path d="M119.699 29.8944C118.526 29.8942 117.377 29.5718 116.375 28.9624C115.374 28.353 114.559 27.4801 114.021 26.4389C113.482 25.3978 113.24 24.2286 113.32 23.0592C113.401 21.8897 113.802 20.7649 114.479 19.8078C115.156 18.8507 116.083 18.0981 117.158 17.6322C118.234 17.1663 119.417 17.0051 120.578 17.1662C121.739 17.3273 122.834 17.8045 123.742 18.5456C124.65 19.2867 125.338 20.2633 125.728 21.3685H128.473C127.951 19.2226 126.662 17.3423 124.847 16.0833C123.033 14.8243 120.82 14.274 118.627 14.5366C116.435 14.7992 114.414 15.8564 112.949 17.5081C111.483 19.1599 110.673 21.2916 110.673 23.5C110.673 25.7083 111.483 27.8401 112.949 29.4918C114.414 31.1436 116.435 32.2008 118.627 32.4634C120.82 32.7259 123.033 32.1757 124.847 30.9167C126.662 29.6577 127.951 27.7774 128.473 25.6315H125.728C125.287 26.8783 124.471 27.9578 123.391 28.7212C122.311 29.4847 121.021 29.8946 119.699 29.8944Z" fill="white"/>
<path d="M62.7257 29.8944C61.5534 29.894 60.4039 29.5714 59.4026 28.9619C58.4014 28.3523 57.5869 27.4793 57.0483 26.4381C56.5097 25.397 56.2676 24.2278 56.3486 23.0584C56.4296 21.889 56.8304 20.7643 57.5073 19.8073C58.1843 18.8503 59.1112 18.0978 60.1869 17.632C61.2626 17.1663 62.4457 17.0052 63.6068 17.1663C64.7679 17.3274 65.8623 17.8046 66.7705 18.5457C67.6787 19.2869 68.3657 20.2634 68.7565 21.3685H71.4998C70.9784 19.2226 69.6885 17.3423 67.8741 16.0833C66.0598 14.8243 63.847 14.2741 61.6543 14.5366C59.4616 14.7992 57.4412 15.8564 55.9754 17.5081C54.5097 19.1599 53.7002 21.2917 53.7002 23.5C53.7002 25.7084 54.5097 27.8401 55.9754 29.4919C57.4412 31.1436 59.4616 32.2008 61.6543 32.4634C63.847 32.726 66.0598 32.1757 67.8741 30.9167C69.6885 29.6577 70.9784 27.7774 71.4998 25.6315H68.7565C68.3156 26.8785 67.4988 27.9582 66.4187 28.7216C65.3386 29.4851 64.0483 29.8949 62.7257 29.8944Z" fill="white"/>
</svg>
