<svg width="167" height="224" viewBox="0 0 167 224" fill="none" xmlns="http://www.w3.org/2000/svg">
<g clip-path="url(#clip0_100_633)">
<g filter="url(#filter0_d_100_633)">
<rect width="189.487" height="182.725" rx="16" transform="matrix(0.968541 0.248855 -0.269123 0.963106 -17.1748 0)" fill="black"/>
</g>
<path d="M5.41427 46.7022C5.71258 46.7045 6.00767 46.7184 6.29953 46.7438C6.59139 46.7693 6.88841 46.8208 7.19059 46.8984C8.35284 47.1971 9.35236 47.6768 10.1891 48.3378C11.0259 48.9987 11.6813 49.7741 12.1551 50.6638C12.629 51.5536 12.913 52.5432 13.0072 53.6327C13.1079 54.699 13.0032 55.787 12.6931 56.8965C12.3379 58.1678 11.7709 59.2608 10.9921 60.1755C10.243 61.0731 9.34669 61.7842 8.30318 62.3089C7.28292 62.8395 6.14516 63.1665 4.88989 63.2899C3.66433 63.3962 2.41231 63.2851 1.13384 62.9566C-0.167881 62.6221 -1.32172 62.1151 -2.32768 61.4355C-3.32717 60.7327 -4.14199 59.904 -4.77212 58.9493C-5.37901 58.0006 -5.78443 56.9551 -5.98838 55.8126C-6.16262 54.653 -6.07213 53.4375 -5.71688 52.1662C-5.47144 51.2879 -5.16725 50.5113 -4.80431 49.8366C-4.43491 49.1387 -4.03193 48.4991 -3.59539 47.9176C-3.1356 47.342 -2.65063 46.8101 -2.14048 46.3218C-1.60063 45.8164 -1.04592 45.3024 -0.476366 44.7799L7.27269 37.7779L13.6534 39.4174L5.41427 46.7022ZM7.52115 55.3446C7.83118 54.2351 7.71439 53.2265 7.17078 52.3189C6.65687 51.3941 5.80717 50.7794 4.62168 50.4748C3.43618 50.1702 2.36817 50.2921 1.41765 50.8407C0.496824 51.3721 -0.118602 52.1925 -0.428632 53.302C-0.738663 54.4115 -0.636724 55.4287 -0.122816 56.3535C0.420796 57.2612 1.28535 57.8673 2.47084 58.1719C3.65634 58.4765 4.7095 58.3631 5.63032 57.8317C6.58084 57.2831 7.21112 56.4541 7.52115 55.3446ZM30.1654 48.7881L17.9618 45.6526L19.2988 40.8678L37.3601 45.5085L36.0812 50.0852L20.6332 67.5208L14.5314 65.953L30.1654 48.7881ZM37.856 53.8857L42.8769 55.1757L42.2375 57.4641L42.3072 57.482C42.5604 57.2002 42.8832 56.9363 43.2758 56.6904C43.6684 56.4444 44.1095 56.248 44.5989 56.1013C45.0884 55.9545 45.6231 55.8689 46.2029 55.8445C46.7827 55.8201 47.3865 55.8885 48.0141 56.0497C49.1996 56.3543 50.1778 56.8658 50.9487 57.5841C51.7429 58.3084 52.2271 59.2504 52.4013 60.41C53.3093 59.4789 54.2579 58.8927 55.2471 58.6514C56.2363 58.4101 57.3586 58.4507 58.6138 58.7732C59.7528 59.0658 60.651 59.5072 61.3082 60.0972C61.9952 60.6701 62.4659 61.3485 62.7202 62.1323C63.0043 62.8989 63.1133 63.7569 63.0474 64.7061C63.0112 65.6382 62.8509 66.6128 62.5667 67.6299L59.7862 77.5807L54.556 76.2368L57.2979 66.4247C57.5175 65.6388 57.5305 64.9237 57.3368 64.2794C57.1728 63.6179 56.6608 63.1767 55.8008 62.9557C55.1964 62.8004 54.6559 62.773 54.1794 62.8735C53.7326 62.9569 53.3329 63.1391 52.9803 63.4202C52.6509 63.7071 52.3636 64.0669 52.1182 64.4993C51.896 64.9377 51.7139 65.4111 51.5718 65.9197L49.0819 74.8303L43.8517 73.4865L46.3417 64.5759C46.4256 64.2754 46.5173 63.9025 46.6168 63.4574C46.7163 63.0122 46.7512 62.5753 46.7215 62.1465C46.6919 61.7177 46.5531 61.3228 46.3051 60.9618C46.0805 60.6068 45.6659 60.3517 45.0616 60.1964C44.3875 60.0232 43.8057 60.01 43.3162 60.1567C42.8332 60.2804 42.4174 60.5203 42.0687 60.8767C41.7497 61.2159 41.4842 61.6308 41.2724 62.1214C41.0606 62.612 40.8772 63.1347 40.7221 63.6894L38.3775 72.08L33.1474 70.7362L37.856 53.8857ZM66.7571 65.7708L74.1141 67.6611L76.1584 60.3453L80.5517 61.4741L78.5074 68.7899L85.8645 70.6802L84.6437 75.0488L77.2867 73.1585L75.2424 80.4743L70.8491 79.3455L72.8934 72.0297L65.5364 70.1394L66.7571 65.7708Z" fill="#FF5400"/>
<path d="M-12.416 75.685L-9.00625 76.5611C-7.21199 77.0221 -6.29694 78.5979 -6.79918 80.3953C-7.30326 82.1992 -8.93248 83.1284 -10.7267 82.6674L-12.9315 82.1009L-13.8789 85.4915L-15.0707 85.1853L-12.416 75.685ZM-11.5186 77.0446L-12.6371 81.0475L-10.7303 81.5374C-9.36642 81.8879 -8.37727 81.3446 -8.02405 80.0806C-7.67266 78.8231 -8.24126 77.8866 -9.61178 77.5345L-11.5186 77.0446ZM-7.41034 87.1535L-5.49704 80.3064L-4.41122 80.5854L-4.72397 81.7047L-4.69748 81.7115C-4.26081 81.0122 -3.4909 80.6949 -2.68315 80.9024C-2.48453 80.9535 -2.32158 81.0306 -2.23257 81.0676L-2.54348 82.1802C-2.62697 82.1235 -2.86275 82.0276 -3.14083 81.9562C-4.03465 81.7265 -4.79574 82.2155 -5.06617 83.1833L-6.2583 87.4495L-7.41034 87.1535ZM-0.736497 88.9953C-2.64331 88.5054 -3.54694 86.8125 -2.938 84.6333C-2.32722 82.4475 -0.663784 81.4213 1.24303 81.9112C3.14322 82.3994 4.0487 84.0857 3.43791 86.2715C2.82897 88.4507 1.1637 89.4835 -0.736497 88.9953ZM-0.455021 87.988C0.763221 88.301 1.81529 87.5834 2.26602 85.9704C2.71674 84.3574 2.1798 83.2315 0.961555 82.9185C-0.256688 82.6055 -1.31537 83.3214 -1.7661 84.9344C-2.21683 86.5474 -1.67326 87.675 -0.455021 87.988ZM4.01731 90.0897L5.66753 84.1841L4.7075 83.9374L4.97058 82.996L5.93061 83.2426L6.14401 82.4789C6.51196 81.1622 7.30247 80.6949 8.57368 81.0216C8.83189 81.0879 9.10261 81.1857 9.26078 81.2545L9.00138 82.1829C8.86786 82.1274 8.68137 82.0583 8.48937 82.009C7.867 81.8491 7.47708 82.1017 7.28759 82.7798L7.07602 83.5369L8.48627 83.8993L8.22319 84.8408L6.81956 84.4801L5.16934 90.3857L4.01731 90.0897ZM7.82432 91.0679L9.73762 84.2208L10.8896 84.5168L8.97635 91.3639L7.82432 91.0679ZM10.6356 83.2167C10.2449 83.1163 10.0107 82.7103 10.1192 82.3219C10.2296 81.9269 10.6423 81.6942 11.033 81.7946C11.4302 81.8966 11.6663 82.296 11.5559 82.691C11.4474 83.0795 11.0328 83.3187 10.6356 83.2167ZM10.5918 91.779L13.2465 82.2786L14.3986 82.5746L11.7439 92.075L10.5918 91.779ZM17.7293 87.2127C16.6501 86.9354 15.6654 87.5644 15.2743 88.6847L19.0151 89.6458C19.3087 88.4935 18.8151 87.4917 17.7293 87.2127ZM18.4164 91.6866L19.5486 91.9775C19.0152 93.1247 17.6034 93.7075 16.1004 93.3213C14.1274 92.8144 13.3098 91.1437 13.9114 88.9908C14.5056 86.8642 16.1268 85.7354 18.027 86.2236C19.8874 86.7017 20.6576 88.339 20.078 90.4129L19.9566 90.8474L15.0174 89.5784L14.999 89.6442C14.6329 90.9544 15.1666 92.0159 16.4047 92.334C17.2786 92.5586 18.0441 92.2825 18.4164 91.6866ZM30.5934 89.5794L26.1509 95.7767L24.9724 95.4739L24.3499 87.9753L25.5615 88.2866L25.8888 94.4039L25.9153 94.4107L29.395 89.2715L30.5934 89.5794ZM29.6468 96.6749L31.5601 89.8278L32.7121 90.1238L30.7988 96.9709L29.6468 96.6749ZM32.458 88.8237C32.0674 88.7233 31.8331 88.3173 31.9417 87.9289C32.052 87.5339 32.4648 87.3012 32.8554 87.4016C33.2526 87.5036 33.4888 87.903 33.3784 88.298C33.2698 88.6865 32.8553 88.9257 32.458 88.8237ZM36.7842 92.1086C35.705 91.8313 34.7203 92.4603 34.3292 93.5806L38.07 94.5418C38.3636 93.3894 37.87 92.3876 36.7842 92.1086ZM37.4713 96.5825L38.6035 96.8734C38.0701 98.0206 36.6583 98.6034 35.1553 98.2173C33.1823 97.7103 32.3647 96.0396 32.9663 93.8867C33.5605 91.7602 35.1817 90.6313 37.0819 91.1196C38.9423 91.5976 39.7125 93.235 39.133 95.3088L39.0115 95.7434L34.0724 94.4743L34.054 94.5401C33.6879 95.8503 34.2215 96.9118 35.4596 97.2299C36.3336 97.4545 37.099 97.1784 37.4713 96.5825ZM49.9794 94.5604L46.146 100.914L44.9741 100.613L44.8992 94.9134L44.8727 94.9066L41.8424 99.8084L40.6705 99.5073L40.6571 92.1652L41.8026 92.4595L41.6233 98.3832L41.6498 98.39L44.7621 93.2199L45.8744 93.5057L45.8805 99.477L45.907 99.4838L48.8406 94.2678L49.9794 94.5604ZM50.279 96.6626C50.6064 95.4907 51.8928 94.925 53.409 95.3146C54.8325 95.6804 55.6431 96.7919 55.3723 97.9642L54.2732 97.6818C54.3777 97.003 53.9555 96.457 53.108 96.2393C52.2672 96.0232 51.5951 96.2951 51.4277 96.8942C51.2952 97.3683 51.5711 97.7778 52.2972 98.1761L53.2914 98.7067C54.5842 99.4129 54.9476 100.043 54.6661 101.05C54.3332 102.242 52.9655 102.793 51.3566 102.38C49.8471 101.992 49.0225 100.905 49.2418 99.6632L50.3938 99.9592C50.3209 100.703 50.7571 101.224 51.6907 101.464C52.6242 101.704 53.3106 101.457 53.4836 100.838C53.6197 100.351 53.4086 100.014 52.691 99.611L51.5658 98.9902C50.4407 98.3695 50.0177 97.5975 50.279 96.6626Z" fill="white"/>
<rect width="7.9784" height="30.7748" rx="3.9892" transform="matrix(0.968541 0.248855 -0.269123 0.963106 8.03125 139.502)" fill="#666666"/>
<rect width="7.9784" height="50.009" rx="3.9892" transform="matrix(0.968541 0.248855 -0.269123 0.963106 31.5596 125.693)" fill="#666666"/>
<rect width="7.9784" height="40.3919" rx="3.9892" transform="matrix(0.968541 0.248855 -0.269123 0.963106 48.29 139.919)" fill="#666666"/>
<rect width="7.9784" height="50.009" rx="3.9892" transform="matrix(0.968541 0.248855 -0.269123 0.963106 69.2305 135.372)" fill="#666666"/>
<rect width="7.9784" height="59.6261" rx="3.9892" transform="matrix(0.968541 0.248855 -0.269123 0.963106 90.1719 130.825)" fill="#FF5400"/>
<rect width="7.9784" height="50.009" rx="3.9892" transform="matrix(0.968541 0.248855 -0.269123 0.963106 105.937 144.803)" fill="#666666"/>
</g>
<defs>
<filter id="filter0_d_100_633" x="-70.54" y="-2.41943" width="241.081" height="231.978" filterUnits="userSpaceOnUse" color-interpolation-filters="sRGB">
<feFlood flood-opacity="0" result="BackgroundImageFix"/>
<feColorMatrix in="SourceAlpha" type="matrix" values="0 0 0 0 0 0 0 0 0 0 0 0 0 0 0 0 0 0 127 0" result="hardAlpha"/>
<feOffset dy="2"/>
<feGaussianBlur stdDeviation="4"/>
<feColorMatrix type="matrix" values="0 0 0 0 0 0 0 0 0 0 0 0 0 0 0 0 0 0 0.0825349 0"/>
<feBlend mode="normal" in2="BackgroundImageFix" result="effect1_dropShadow_100_633"/>
<feBlend mode="normal" in="SourceGraphic" in2="effect1_dropShadow_100_633" result="shape"/>
</filter>
<clipPath id="clip0_100_633">
<rect width="189.487" height="182.725" fill="white" transform="matrix(0.968541 0.248855 -0.269123 0.963106 -17.1748 0)"/>
</clipPath>
</defs>
</svg>
