<svg width="243" height="258" viewBox="0 0 243 258" fill="none" xmlns="http://www.w3.org/2000/svg">
<g clip-path="url(#clip0_100_645)" filter="url(#filter0_d_100_645)">
<g filter="url(#filter1_d_100_645)">
<rect width="280.241" height="221.194" rx="16" transform="matrix(0.968541 -0.248855 0.269123 0.963106 36.1904 90.1587)" fill="black"/>
</g>
<rect opacity="0.36" width="187.492" height="0.961712" transform="matrix(0.96359 -0.267384 0.287545 0.957767 110.167 144.828)" fill="#666666"/>
<rect opacity="0.36" width="187.492" height="0.961712" transform="matrix(0.96359 -0.267384 0.287545 0.957767 122.334 185.357)" fill="#666666"/>
<rect opacity="0.36" width="187.492" height="0.961712" transform="matrix(0.96359 -0.267384 0.287545 0.957767 135.331 228.648)" fill="#666666"/>
<path d="M134.813 263.716L135.999 263.411C136.25 264.208 137.022 264.609 137.889 264.386C138.942 264.116 139.336 263.344 139.013 262.185L137.099 255.338L138.291 255.032L140.206 261.886C140.71 263.69 139.962 265.025 138.201 265.478C136.612 265.886 135.216 265.158 134.813 263.716ZM144.749 262.638C145.835 262.359 146.458 261.387 146.182 260.4L146.026 259.84L144.216 260.425C143.306 260.722 142.89 261.267 143.071 261.912C143.253 262.564 143.922 262.85 144.749 262.638ZM144.764 263.679C143.393 264.031 142.243 263.444 141.899 262.213C141.571 261.041 142.272 260.071 143.836 259.57L145.777 258.951L145.617 258.379C145.384 257.542 144.688 257.185 143.734 257.43C142.847 257.658 142.407 258.216 142.449 258.925L141.336 259.21C141.085 258.005 141.85 256.834 143.479 256.416C145.095 256.001 146.357 256.608 146.738 257.971L148.061 262.704L146.968 262.985L146.639 261.807L146.612 261.813C146.421 262.702 145.69 263.44 144.764 263.679ZM149.621 262.304L147.707 255.456L148.793 255.177L149.099 256.27L149.125 256.264C149.303 255.428 149.906 254.765 150.972 254.491C152.481 254.103 153.626 254.846 154.06 256.4L155.302 260.844L154.149 261.14L152.965 256.9C152.656 255.794 151.963 255.323 150.904 255.595C149.818 255.874 149.323 256.82 149.647 257.978L150.773 262.008L149.621 262.304Z" fill="#666666"/>
<path d="M172.146 256.516L170.954 256.822L168.299 247.322L174.099 245.832L174.397 246.898L169.789 248.082L170.702 251.348L174.933 250.261L175.227 251.314L170.996 252.401L172.146 256.516ZM178.864 248.39C177.784 248.667 177.259 249.684 177.505 250.842L181.246 249.88C180.899 248.742 179.949 248.111 178.864 248.39ZM181.791 251.935L182.924 251.644C183.06 252.893 182.141 254.075 180.638 254.461C178.665 254.968 177.086 253.913 176.484 251.76C175.89 249.634 176.705 247.879 178.606 247.391C180.466 246.912 181.987 247.961 182.566 250.035L182.688 250.47L177.749 251.739L177.767 251.805C178.133 253.115 179.149 253.778 180.387 253.46C181.261 253.235 181.78 252.629 181.791 251.935ZM188.276 252.498C187.27 252.757 186.346 252.472 185.681 251.796L185.655 251.803L185.979 252.962L184.88 253.244L182.225 243.744L183.377 243.448L184.438 247.247L184.465 247.24C184.676 246.346 185.343 245.659 186.316 245.409C188.051 244.964 189.613 246.058 190.213 248.205C190.814 250.357 190.037 252.046 188.276 252.498ZM186.353 246.48C185.188 246.779 184.643 248.005 185.068 249.526C185.495 251.054 186.604 251.848 187.77 251.549C188.988 251.236 189.472 250.074 189.034 248.507C188.6 246.954 187.571 246.167 186.353 246.48Z" fill="#666666"/>
<path d="M215.236 245.445L214.124 245.73L212.078 238.409L212.032 238.421L211.014 246.459L210.007 246.718L204.934 240.245L204.888 240.257L206.934 247.578L205.821 247.864L203.167 238.363L204.55 238.008L210.063 245.087L210.116 245.074L211.198 236.3L212.582 235.944L215.236 245.445ZM218.841 243.601C219.927 243.322 220.55 242.351 220.274 241.363L220.118 240.803L218.308 241.388C217.398 241.686 216.982 242.23 217.163 242.875C217.345 243.527 218.014 243.814 218.841 243.601ZM218.855 244.642C217.485 244.994 216.335 244.407 215.991 243.176C215.663 242.004 216.364 241.034 217.927 240.533L219.869 239.915L219.709 239.342C219.475 238.506 218.779 238.148 217.826 238.393C216.939 238.621 216.499 239.179 216.541 239.888L215.428 240.173C215.177 238.968 215.942 237.797 217.571 237.379C219.187 236.964 220.449 237.571 220.83 238.934L222.153 243.668L221.06 243.948L220.731 242.77L220.704 242.777C220.513 243.665 219.782 244.404 218.855 244.642ZM223.713 243.267L221.799 236.42L222.885 236.141L223.198 237.26L223.224 237.253C223.238 236.438 223.739 235.794 224.547 235.587C224.746 235.536 224.927 235.524 225.023 235.514L225.334 236.626C225.232 236.617 224.978 236.647 224.7 236.719C223.806 236.948 223.402 237.737 223.673 238.704L224.865 242.971L223.713 243.267Z" fill="#666666"/>
<path d="M247.868 237.06L246.148 234.588L242.347 235.564L242.147 238.53L240.896 238.852L241.764 228.446L242.942 228.144L249.119 236.739L247.868 237.06ZM242.736 229.742L242.417 234.467L245.515 233.671L242.776 229.732L242.736 229.742ZM251.527 228.655C253.281 228.204 254.863 229.293 255.463 231.44C256.063 233.586 255.267 235.286 253.533 235.732C252.546 235.985 251.617 235.709 250.997 235.064L250.971 235.071L251.92 238.468L250.768 238.764L248.216 229.632L249.309 229.352L249.633 230.51L249.659 230.503C249.867 229.624 250.527 228.911 251.527 228.655ZM253 234.789C254.225 234.475 254.718 233.296 254.284 231.742C253.852 230.195 252.808 229.405 251.583 229.72C250.405 230.023 249.893 231.241 250.318 232.761C250.745 234.289 251.821 235.092 253 234.789ZM257.682 234.539L255.768 227.692L256.854 227.413L257.167 228.532L257.193 228.525C257.207 227.71 257.708 227.066 258.516 226.859C258.715 226.808 258.896 226.796 258.992 226.786L259.303 227.898C259.201 227.889 258.947 227.919 258.669 227.991C257.775 228.22 257.371 229.009 257.641 229.977L258.834 234.243L257.682 234.539Z" fill="#666666"/>
<path d="M66.2033 107.549L70.3319 106.488C73.9752 105.552 76.7605 107.259 77.8343 111.102C78.9106 114.953 77.3969 117.765 73.7451 118.703L69.6165 119.764L66.2033 107.549ZM68.1187 108.527L70.7655 117.999L73.2597 117.358C76.0433 116.643 77.1196 114.552 76.2728 111.521C75.4189 108.466 73.405 107.169 70.6129 107.886L68.1187 108.527ZM83.8314 114.932C85.2275 114.573 86.028 113.324 85.6732 112.055L85.4722 111.335L83.1459 112.087C81.9754 112.469 81.4411 113.169 81.6729 113.999C81.907 114.837 82.7673 115.205 83.8314 114.932ZM83.8495 116.27C82.0874 116.723 80.6085 115.969 80.1662 114.386C79.7451 112.879 80.6464 111.631 82.6563 110.988L85.1529 110.192L84.9471 109.456C84.6467 108.381 83.7519 107.921 82.526 108.236C81.3854 108.529 80.8193 109.246 80.8733 110.158L79.4432 110.525C79.1196 108.975 80.1041 107.47 82.1982 106.932C84.2753 106.399 85.8984 107.179 86.3881 108.931L88.0887 115.018L86.6842 115.379L86.2608 113.863L86.2267 113.872C85.9804 115.015 85.0412 115.964 83.8495 116.27ZM88.0357 108.2C87.6147 106.693 88.6678 105.27 90.6171 104.769C92.4473 104.299 94.0951 105.037 94.5795 106.509L93.1664 106.872C92.8277 106.052 91.9915 105.704 90.9019 105.984C89.8208 106.262 89.2548 106.979 89.47 107.749C89.6403 108.359 90.2221 108.645 91.2975 108.641L92.7603 108.619C94.6733 108.608 95.5 109.085 95.8619 110.38C96.29 111.912 95.1372 113.37 93.0686 113.901C91.1277 114.4 89.4809 113.698 88.8925 112.18L90.3737 111.8C90.7909 112.672 91.6261 112.984 92.8264 112.675C94.0266 112.367 94.6253 111.669 94.403 110.873C94.2279 110.247 93.7673 110.002 92.698 109.996L91.029 109.998C89.36 110 88.3716 109.402 88.0357 108.2ZM98.1676 112.428L94.7544 100.213L96.2356 99.8327L97.5815 104.649L97.6155 104.64C97.8349 103.532 98.6445 102.707 99.9895 102.361C101.93 101.862 103.469 102.864 104.018 104.828L105.608 110.516L104.126 110.897L102.613 105.479C102.222 104.083 101.282 103.426 99.894 103.783C98.4214 104.161 97.7896 105.394 98.2154 106.918L99.6488 112.047L98.1676 112.428ZM111.932 109.055C110.639 109.387 109.451 109.021 108.596 108.152L108.562 108.16L108.979 109.65L107.565 110.013L104.152 97.7986L105.633 97.4181L106.998 102.302L107.032 102.293C107.304 101.144 108.162 100.261 109.413 99.9399C111.643 99.3669 113.651 100.774 114.422 103.534C115.196 106.302 114.197 108.473 111.932 109.055ZM109.46 101.316C107.962 101.701 107.262 103.278 107.808 105.233C108.357 107.197 109.783 108.219 111.281 107.834C112.847 107.431 113.47 105.938 112.907 103.923C112.349 101.925 111.026 100.914 109.46 101.316ZM120.871 106.758C118.419 107.388 116.278 106.06 115.495 103.258C114.71 100.448 115.874 98.2798 118.326 97.6499C120.769 97.0222 122.907 98.3416 123.693 101.152C124.476 103.954 123.314 106.13 120.871 106.758ZM120.509 105.463C122.075 105.06 122.765 103.613 122.186 101.539C121.606 99.4652 120.254 98.5426 118.687 98.945C117.121 99.3475 116.422 100.797 117.002 102.871C117.581 104.945 118.942 105.865 120.509 105.463ZM129.033 103.318C130.429 102.959 131.23 101.71 130.875 100.441L130.674 99.7211L128.348 100.473C127.177 100.855 126.643 101.555 126.875 102.385C127.109 103.223 127.969 103.591 129.033 103.318ZM129.051 104.656C127.289 105.109 125.81 104.355 125.368 102.772C124.947 101.265 125.848 100.017 127.858 99.374L130.355 98.5783L130.149 97.8419C129.848 96.7669 128.954 96.3073 127.728 96.6222C126.587 96.9153 126.021 97.6323 126.075 98.5438L124.645 98.9113C124.321 97.3614 125.306 95.8564 127.4 95.3184C129.477 94.7847 131.1 95.5652 131.59 97.3174L133.29 103.404L131.886 103.765L131.462 102.249L131.428 102.258C131.182 103.401 130.243 104.35 129.051 104.656ZM135.172 102.92L132.712 94.1169L134.108 93.7582L134.51 95.1972L134.544 95.1884C134.561 94.1406 135.206 93.3127 136.244 93.0459C136.5 92.9802 136.733 92.9657 136.857 92.952L137.257 94.3826C137.126 94.3709 136.799 94.4095 136.441 94.5013C135.292 94.7966 134.772 95.8102 135.12 97.0545L136.653 102.54L135.172 102.92ZM143.523 100.938C141.267 101.518 139.233 100.117 138.462 97.3571C137.691 94.5976 138.713 92.4116 140.943 91.8385C142.212 91.5126 143.406 91.8681 144.203 92.6975L144.237 92.6887L142.884 87.8469L144.366 87.4663L147.779 99.681L146.366 100.044L145.949 98.5543L145.924 98.5608C145.637 99.7232 144.799 100.61 143.523 100.938ZM141.62 93.0527C140.054 93.4552 139.421 94.9786 139.977 96.9678C140.535 98.9655 141.875 99.9731 143.442 99.5706C144.965 99.1791 145.627 97.63 145.076 95.6577C144.527 93.6939 143.144 92.6612 141.62 93.0527ZM152.082 86.9353L153.39 91.6163L156.327 90.8618C157.902 90.4571 158.559 89.381 158.14 87.8827C157.731 86.4183 156.534 85.7914 154.951 86.1982L152.082 86.9353ZM153.766 92.9622L155.117 97.7956L153.584 98.1893L150.171 85.9746L154.777 84.7914C157.143 84.1833 159.094 85.2243 159.709 87.4251C160.185 89.1265 159.626 90.6854 158.22 91.5638L162.48 95.9037L160.684 96.3652L156.703 92.2077L153.766 92.9622ZM165.212 86.9729C163.825 87.3294 163.15 88.6368 163.466 90.1253L168.275 88.8895C167.83 87.4254 166.608 86.6142 165.212 86.9729ZM168.977 91.5308L170.432 91.1568C170.608 92.763 169.426 94.2823 167.494 94.7788C164.957 95.4305 162.927 94.0742 162.153 91.3062C161.389 88.5721 162.438 86.3159 164.881 85.6881C167.273 85.0735 169.228 86.422 169.973 89.0884L170.129 89.647L163.779 91.2787L163.802 91.3633C164.273 93.0478 165.579 93.9008 167.171 93.4918C168.295 93.2031 168.962 92.4238 168.977 91.5308ZM174.543 83.2057C176.798 82.6261 178.832 84.0269 179.603 86.7864C180.374 89.5459 179.352 91.732 177.122 92.305C175.853 92.6309 174.659 92.2755 173.862 91.4461L173.828 91.4548L175.048 95.8227L173.567 96.2032L170.286 84.4626L171.691 84.1017L172.107 85.5915L172.141 85.5827C172.409 84.4524 173.257 83.5359 174.543 83.2057ZM176.436 91.093C178.011 90.6884 178.646 89.1734 178.088 87.1757C177.532 85.1865 176.19 84.1705 174.615 84.5751C173.1 84.9645 172.443 86.5305 172.989 88.4859C173.538 90.4497 174.921 91.4824 176.436 91.093ZM186.043 90.0129C183.591 90.6428 181.45 89.3149 180.667 86.513C179.882 83.7027 181.046 81.5346 183.498 80.9047C185.941 80.277 188.08 81.5964 188.865 84.4067C189.648 87.2086 188.486 89.3851 186.043 90.0129ZM185.681 88.7177C187.247 88.3153 187.938 86.8678 187.358 84.7939C186.779 82.72 185.426 81.7974 183.86 82.1998C182.293 82.6023 181.594 84.052 182.174 86.1259C182.753 88.1998 184.115 89.1202 185.681 88.7177ZM191.593 88.4235L189.133 79.6201L190.529 79.2614L190.931 80.7004L190.965 80.6917C190.983 79.6439 191.627 78.816 192.666 78.5491C192.921 78.4835 193.154 78.469 193.278 78.4553L193.678 79.8858C193.547 79.8741 193.22 79.9127 192.863 80.0046C191.713 80.2999 191.194 81.3134 191.541 82.5577L193.074 88.0429L191.593 88.4235ZM194.396 75.9907L195.877 75.6101L196.471 77.7347L198.19 77.2929L198.529 78.5034L196.809 78.9452L198.271 84.1765C198.496 84.9806 198.938 85.2571 199.695 85.0624C199.866 85.0187 200.199 84.9058 200.297 84.8626L200.642 86.0985C200.475 86.1868 200.073 86.3171 199.724 86.4068C198.099 86.8246 197.284 86.3262 196.811 84.6332L195.328 79.3258L194.009 79.6648L193.67 78.4543L194.99 78.1153L194.396 75.9907Z" fill="white"/>
<path d="M128.273 208.513C128.273 208.513 134.891 204.738 144.329 207.297C162.279 212.164 158.636 195.742 162.194 186.458C165.449 177.964 171.016 181.206 179.304 188.441C185.418 193.777 189.549 184.454 195.57 181.041C201.075 177.92 201.748 164.15 209.092 158.804C214.914 154.568 222.188 160.228 229.021 155.812C238.29 149.821 236.206 136.529 243.503 134.654C252.509 132.34 264.582 153.911 272.775 151.806C280.919 149.714 278.75 125.88 289.59 130.499C297.877 134.031 296.395 113.641 296.395 113.641" stroke="#FF5400" stroke-width="2" stroke-linecap="round" stroke-linejoin="round"/>
<path d="M125.129 197.262C125.752 197.44 127.826 196.152 130.716 195.838C132.992 195.59 135.177 196.111 138.063 195.697C143.54 194.911 148.045 194.392 150.896 195.142C153.748 195.893 158.759 199.634 163.168 198.501C167.577 197.368 169.14 194.351 170.354 192.316C171.517 190.367 173.552 185.88 178.4 184.197C183.75 182.34 187.487 178.438 193.893 176.298C197.307 175.157 200.231 174.919 203.551 174.863C206.872 174.806 206.353 175.284 213.514 174.058C219.424 173.047 221.39 174.287 227.106 173.029C232.822 171.77 233.727 164.965 239.848 163.941C245.968 162.917 246.792 161.287 253.112 162.351C259.431 163.416 264.063 160.081 270.973 157.757C277.883 155.432 280.164 156.549 283.454 155.484C286.744 154.419 290.84 157.516 293.866 157.342C296.893 157.168 297.135 154.913 303.232 153.347C309.328 151.78 308.109 149.918 311.413 148.904C314.718 147.891 317.139 147.546 318.029 146.604" stroke="#808991" stroke-width="2" stroke-linecap="round" stroke-linejoin="round"/>
<g clip-path="url(#clip1_100_645)">
<path d="M122.949 238.626C120.735 239.262 118.866 237.737 117.943 234.759C117.027 231.808 117.728 229.523 119.929 228.891C122.13 228.259 124 229.79 124.918 232.748C125.842 235.725 125.156 237.991 122.949 238.626ZM122.631 237.601C124.109 237.176 124.46 235.447 123.731 233.096C123.012 230.778 121.714 229.502 120.249 229.923C118.784 230.344 118.417 232.113 119.13 234.411C119.859 236.762 121.146 238.027 122.631 237.601Z" fill="#666666"/>
<path d="M102.095 196.807C100.281 197.328 98.5928 196.59 97.996 195.012L99.1589 194.678C99.5759 195.653 100.651 196.098 101.788 195.771C103.076 195.401 103.694 194.257 103.301 192.99C102.908 191.723 101.726 191.075 100.465 191.437C99.5778 191.692 98.9458 192.307 98.7627 193.078L97.6524 193.397L96.5349 187.973L101.962 186.413L102.286 187.458L97.8314 188.738L98.4942 191.89L98.5205 191.882C98.7713 191.191 99.4544 190.625 100.361 190.365C102.181 189.842 103.906 190.789 104.473 192.618C105.061 194.511 104.072 196.238 102.095 196.807ZM110.121 194.5C107.907 195.137 106.038 193.611 105.115 190.634C104.199 187.683 104.9 185.398 107.101 184.766C109.302 184.133 111.173 185.665 112.09 188.623C113.014 191.6 112.328 193.866 110.121 194.5ZM109.803 193.475C111.281 193.051 111.632 191.321 110.903 188.971C110.184 186.653 108.886 185.376 107.421 185.797C105.956 186.218 105.589 187.988 106.302 190.286C107.031 192.636 108.318 193.902 109.803 193.475Z" fill="#666666"/>
<path d="M83.2052 157.825L80.6694 149.651L80.6431 149.658L78.6903 152.175L78.3055 150.934L80.2694 148.407L81.4257 148.075L84.3484 157.496L83.2052 157.825ZM90.2156 155.981C88.0015 156.617 86.133 155.092 85.2094 152.115C84.2939 149.164 84.9948 146.879 87.1958 146.246C89.3967 145.614 91.2673 147.146 92.1848 150.103C93.1084 153.08 92.4232 155.347 90.2156 155.981ZM89.8977 154.956C91.3759 154.531 91.7268 152.802 90.9976 150.451C90.2786 148.134 88.9809 146.857 87.5158 147.278C86.0507 147.699 85.6836 149.468 86.3966 151.767C87.1257 154.117 88.4128 155.383 89.8977 154.956ZM98.4718 153.609C96.2577 154.245 94.3891 152.72 93.4655 149.742C92.5501 146.791 93.2509 144.506 95.4519 143.874C97.6529 143.241 99.5234 144.773 100.441 147.731C101.365 150.708 100.679 152.974 98.4718 153.609ZM98.1538 152.583C99.632 152.159 99.9829 150.429 99.2538 148.079C98.5347 145.761 97.237 144.484 95.7719 144.905C94.3068 145.326 93.9398 147.096 94.6527 149.394C95.3818 151.744 96.6689 153.01 98.1538 152.583Z" fill="#666666"/>
</g>
</g>
<defs>
<filter id="filter0_d_100_645" x="-3.80957" y="-3.58057" width="426.953" height="378.772" filterUnits="userSpaceOnUse" color-interpolation-filters="sRGB">
<feFlood flood-opacity="0" result="BackgroundImageFix"/>
<feColorMatrix in="SourceAlpha" type="matrix" values="0 0 0 0 0 0 0 0 0 0 0 0 0 0 0 0 0 0 127 0" result="hardAlpha"/>
<feOffset dx="8" dy="24"/>
<feGaussianBlur stdDeviation="24"/>
<feColorMatrix type="matrix" values="0 0 0 0 0 0 0 0 0 0 0 0 0 0 0 0 0 0 0.119675 0"/>
<feBlend mode="normal" in2="BackgroundImageFix" result="effect1_dropShadow_100_645"/>
<feBlend mode="normal" in="SourceGraphic" in2="effect1_dropShadow_100_645" result="shape"/>
</filter>
<filter id="filter1_d_100_645" x="32" y="18" width="339.334" height="291.611" filterUnits="userSpaceOnUse" color-interpolation-filters="sRGB">
<feFlood flood-opacity="0" result="BackgroundImageFix"/>
<feColorMatrix in="SourceAlpha" type="matrix" values="0 0 0 0 0 0 0 0 0 0 0 0 0 0 0 0 0 0 127 0" result="hardAlpha"/>
<feOffset dy="2"/>
<feGaussianBlur stdDeviation="4"/>
<feColorMatrix type="matrix" values="0 0 0 0 0 0 0 0 0 0 0 0 0 0 0 0 0 0 0.0825349 0"/>
<feBlend mode="normal" in2="BackgroundImageFix" result="effect1_dropShadow_100_645"/>
<feBlend mode="normal" in="SourceGraphic" in2="effect1_dropShadow_100_645" result="shape"/>
</filter>
<clipPath id="clip0_100_645">
<rect width="280.241" height="221.194" fill="white" transform="matrix(0.968541 -0.248855 0.269123 0.963106 36.1904 90.1587)"/>
</clipPath>
<clipPath id="clip1_100_645">
<rect width="24.9325" height="103.865" fill="white" transform="matrix(0.961106 -0.276181 0.296288 0.955099 75.1367 146.09)"/>
</clipPath>
</defs>
</svg>
